<svg width="94" height="50" viewBox="0 0 94 610" fill="none" xmlns="http://www.w3.org/2000/svg">
<path d="M-352.591 0.394742C-406.452 -1.33151 -438.316 35.6128 -462.572 83.7334C-506.833 171.537 -521.967 276.494 -507.418 365.852C-492.868 455.21 -440.047 517.336 -387.364 554.563C-307.508 610.991 -286.59 612.6 -208.5 607.018C-151.503 602.944 -120.808 595.565 -54.8058 561.844C11.1961 528.123 115.439 465.113 89.4221 374.546C68.8276 302.855 -73.879 282.313 -73.879 282.313C-73.879 282.313 -140.389 274.713 -180.359 243.749C-221.729 211.701 -247.937 128.037 -247.937 128.037C-247.937 128.037 -288.164 2.45965 -352.591 0.394742Z" fill="#EFE3A2"/>
</svg>
