<svg width="11" height="11" viewBox="0 0 11 11" fill="none" xmlns="http://www.w3.org/2000/svg">
<g clip-path="url(#clip0_2417_1907)">
<path d="M10.998 11.0003V10.9998H11.0007V6.96555C11.0007 4.99197 10.5759 3.47168 8.26861 3.47168C7.15944 3.47168 6.41511 4.08035 6.11123 4.65739H6.07915V3.65593H3.89153V10.9998H6.16944V7.36339C6.16944 6.40593 6.35094 5.4801 7.53665 5.4801C8.70494 5.4801 8.72236 6.57276 8.72236 7.42481V11.0003H10.998Z" fill="black"/>
<path d="M0.182236 3.65625H2.4629V11.0001H0.182236V3.65625Z" fill="black"/>
<path d="M1.32165 0C0.592441 0 0.000732422 0.591708 0.000732422 1.32092C0.000732422 2.05013 0.592441 2.65421 1.32165 2.65421C2.05086 2.65421 2.64257 2.05013 2.64257 1.32092C2.64211 0.591708 2.0504 0 1.32165 0V0Z" fill="black"/>
</g>
<defs>
<clipPath id="clip0_2417_1907">
<rect width="11" height="11" fill="white" transform="translate(0.000732422)"/>
</clipPath>
</defs>
</svg>
