<svg width="58" height="58" viewBox="0 0 58 58" fill="none" xmlns="http://www.w3.org/2000/svg">
<circle cx="29" cy="29" r="29" fill="#E4531E"/>
<path d="M20.17 35.89C20.85 35.35 21.16 35.1 21.1 35.14C23.06 33.52 24.6 32.19 25.72 31.15C26.86 30.11 27.82 29.02 28.6 27.88C29.38 26.74 29.77 25.63 29.77 24.55C29.77 23.73 29.58 23.09 29.2 22.63C28.82 22.17 28.25 21.94 27.49 21.94C26.73 21.94 26.13 22.23 25.69 22.81C25.27 23.37 25.06 24.17 25.06 25.21H20.11C20.15 23.51 20.51 22.09 21.19 20.95C21.89 19.81 22.8 18.97 23.92 18.43C25.06 17.89 26.32 17.62 27.7 17.62C30.08 17.62 31.87 18.23 33.07 19.45C34.29 20.67 34.9 22.26 34.9 24.22C34.9 26.36 34.17 28.35 32.71 30.19C31.25 32.01 29.39 33.79 27.13 35.53H35.23V39.7H20.17V35.89ZM40.3987 40.24C39.4987 40.24 38.7587 39.98 38.1787 39.46C37.6187 38.92 37.3387 38.26 37.3387 37.48C37.3387 36.68 37.6187 36.01 38.1787 35.47C38.7587 34.93 39.4987 34.66 40.3987 34.66C41.2787 34.66 41.9987 34.93 42.5587 35.47C43.1387 36.01 43.4287 36.68 43.4287 37.48C43.4287 38.26 43.1387 38.92 42.5587 39.46C41.9987 39.98 41.2787 40.24 40.3987 40.24Z" fill="white"/>
</svg>
