<svg width="58" height="58" viewBox="0 0 58 58" fill="none" xmlns="http://www.w3.org/2000/svg">
<circle cx="29" cy="29" r="29" fill="#E4531E"/>
<path d="M22.81 22.87V18.1H31.12V40H25.78V22.87H22.81ZM37.5393 40.24C36.6393 40.24 35.8993 39.98 35.3193 39.46C34.7593 38.92 34.4793 38.26 34.4793 37.48C34.4793 36.68 34.7593 36.01 35.3193 35.47C35.8993 34.93 36.6393 34.66 37.5393 34.66C38.4193 34.66 39.1393 34.93 39.6993 35.47C40.2793 36.01 40.5693 36.68 40.5693 37.48C40.5693 38.26 40.2793 38.92 39.6993 39.46C39.1393 39.98 38.4193 40.24 37.5393 40.24Z" fill="white"/>
</svg>
