<svg width="58" height="58" viewBox="0 0 58 58" fill="none" xmlns="http://www.w3.org/2000/svg">
<circle cx="29" cy="29" r="29" fill="#E4531E"/>
<path d="M19.53 24.28C19.61 22.14 20.31 20.49 21.63 19.33C22.95 18.17 24.74 17.59 27 17.59C28.5 17.59 29.78 17.85 30.84 18.37C31.92 18.89 32.73 19.6 33.27 20.5C33.83 21.4 34.11 22.41 34.11 23.53C34.11 24.85 33.78 25.93 33.12 26.77C32.46 27.59 31.69 28.15 30.81 28.45V28.57C31.95 28.95 32.85 29.58 33.51 30.46C34.17 31.34 34.5 32.47 34.5 33.85C34.5 35.09 34.21 36.19 33.63 37.15C33.07 38.09 32.24 38.83 31.14 39.37C30.06 39.91 28.77 40.18 27.27 40.18C24.87 40.18 22.95 39.59 21.51 38.41C20.09 37.23 19.34 35.45 19.26 33.07H24.24C24.26 33.95 24.51 34.65 24.99 35.17C25.47 35.67 26.17 35.92 27.09 35.92C27.87 35.92 28.47 35.7 28.89 35.26C29.33 34.8 29.55 34.2 29.55 33.46C29.55 32.5 29.24 31.81 28.62 31.39C28.02 30.95 27.05 30.73 25.71 30.73H24.75V26.56H25.71C26.73 26.56 27.55 26.39 28.17 26.05C28.81 25.69 29.13 25.06 29.13 24.16C29.13 23.44 28.93 22.88 28.53 22.48C28.13 22.08 27.58 21.88 26.88 21.88C26.12 21.88 25.55 22.11 25.17 22.57C24.81 23.03 24.6 23.6 24.54 24.28H19.53ZM40.4241 40.24C39.5241 40.24 38.7841 39.98 38.2041 39.46C37.6441 38.92 37.3641 38.26 37.3641 37.48C37.3641 36.68 37.6441 36.01 38.2041 35.47C38.7841 34.93 39.5241 34.66 40.4241 34.66C41.3041 34.66 42.0241 34.93 42.5841 35.47C43.1641 36.01 43.4541 36.68 43.4541 37.48C43.4541 38.26 43.1641 38.92 42.5841 39.46C42.0241 39.98 41.3041 40.24 40.4241 40.24Z" fill="white"/>
</svg>
