<svg width="58" height="58" viewBox="0 0 58 58" fill="none" xmlns="http://www.w3.org/2000/svg">
<circle cx="29" cy="29" r="29" fill="#E4531E"/>
<path d="M16.47 35.1V30.96L25.95 17.4H31.68V30.66H34.14V35.1H31.68V39H26.55V35.1H16.47ZM26.91 23.04L21.87 30.66H26.91V23.04ZM39.5627 39.24C38.6627 39.24 37.9227 38.98 37.3427 38.46C36.7827 37.92 36.5027 37.26 36.5027 36.48C36.5027 35.68 36.7827 35.01 37.3427 34.47C37.9227 33.93 38.6627 33.66 39.5627 33.66C40.4427 33.66 41.1627 33.93 41.7227 34.47C42.3027 35.01 42.5927 35.68 42.5927 36.48C42.5927 37.26 42.3027 37.92 41.7227 38.46C41.1627 38.98 40.4427 39.24 39.5627 39.24Z" fill="white"/>
</svg>
