<?xml version="1.0" standalone="no"?>
<!DOCTYPE svg PUBLIC "-//W3C//DTD SVG 1.1//EN" "http://www.w3.org/Graphics/SVG/1.1/DTD/svg11.dtd" >
<svg xmlns="http://www.w3.org/2000/svg">
<metadata>Generated by IcoMoon</metadata>
<defs>
<font id="Clarity-Icon-Library-4-1-1" horiz-adv-x="1024">
<font-face units-per-em="1024" ascent="960" descent="-64" />
<missing-glyph horiz-adv-x="1024" />
<glyph unicode="&#x20;" horiz-adv-x="512" d="" />
<glyph unicode="&#xe900;" glyph-name="accessibility" d="M512 819.2c48 0 89.6-38.4 89.6-89.6 0-48-38.4-89.6-89.6-89.6-48 0-89.6 38.4-89.6 89.6 3.2 48 41.6 89.6 89.6 89.6zM816 528c-54.4-12.8-172.8-16-182.4-25.6s-9.6-86.4-6.4-150.4c6.4-86.4 12.8-208 12.8-256 0-32-67.2-35.2-70.4-12.8-19.2 112-22.4 224-41.6 236.8-3.2 3.2-12.8 3.2-19.2 3.2s-12.8 0-16-3.2c-16-12.8-22.4-124.8-41.6-236.8 0-19.2-67.2-16-67.2 12.8 0 48 6.4 169.6 12.8 256 3.2 64 6.4 137.6-6.4 150.4-9.6 9.6-128 12.8-182.4 25.6-16 3.2-19.2 64 0 67.2 57.6 6.4 220.8-6.4 304-6.4s246.4 12.8 304 6.4c19.2-3.2 19.2-60.8 0-67.2zM512-64c-281.6 0-512 230.4-512 512s230.4 512 512 512 512-230.4 512-512-230.4-512-512-512zM512 896c-246.4 0-448-201.6-448-448s201.6-448 448-448 448 201.6 448 448-201.6 448-448 448z" />
<glyph unicode="&#xe901;" glyph-name="aisle" d="M883.2 812.8c-9.6 3.2-19.2 6.4-28.8 6.4s-19.2-3.2-28.8-6.4l-89.6-38.4v124.8l-131.2 51.2c-16 6.4-28.8 9.6-41.6 9.6-9.6 0-22.4-3.2-35.2-9.6l-502.4-214.4c0 0-25.6-6.4-25.6-44.8v-755.2h1024v825.6l-140.8 51.2zM160 0h-96v684.8l96 41.6v-726.4zM352 0h-128v752l128 54.4v-806.4zM512 0h-96v832l96 41.6v-873.6zM672 0h-96v892.8c0 0 3.2 0 3.2 0l92.8-38.4v-854.4zM800 0h-64v704l64 25.6v-729.6zM960 0h-96v752l96-35.2v-716.8z" />
<glyph unicode="&#xe902;" glyph-name="alert-alarm" d="M960 422.4c0 246.4-201.6 448-448 448s-448-201.6-448-448c0-128 54.4-240 137.6-323.2l-76.8-76.8c-12.8-12.8-12.8-32 0-44.8 6.4-6.4 16-9.6 22.4-9.6 9.6 0 16 3.2 22.4 9.6l83.2 80c73.6-51.2 163.2-83.2 259.2-83.2s188.8 32 262.4 83.2l80-80c6.4-6.4 16-9.6 22.4-9.6s16 3.2 22.4 9.6c12.8 12.8 12.8 32 0 44.8l-76.8 76.8c83.2 83.2 137.6 195.2 137.6 323.2zM128 422.4c0 211.2 172.8 384 384 384s384-172.8 384-384c0-211.2-172.8-384-384-384s-384 172.8-384 384zM64 729.6c0 19.2 6.4 38.4 19.2 51.2l54.4 57.6c12.8 12.8 32 22.4 51.2 22.4 12.8 0 28.8-3.2 38.4-12.8 19.2 9.6 38.4 22.4 60.8 32l-6.4 3.2c-25.6 25.6-57.6 38.4-92.8 38.4s-70.4-12.8-99.2-41.6l-51.2-57.6c-51.2-54.4-48-140.8 6.4-192l3.2-3.2c9.6 19.2 19.2 41.6 32 60.8-9.6 12.8-16 25.6-16 41.6zM985.6 822.4l-54.4 57.6c-25.6 28.8-64 41.6-99.2 41.6-32 0-67.2-12.8-92.8-38.4l-3.2-3.2c19.2-9.6 41.6-22.4 60.8-35.2 12.8 6.4 25.6 12.8 38.4 12.8 19.2 0 38.4-6.4 51.2-22.4l54.4-57.6c12.8-12.8 19.2-32 19.2-51.2 0-12.8-6.4-28.8-12.8-38.4 12.8-19.2 22.4-38.4 32-60.8l3.2 3.2c54.4 54.4 54.4 137.6 3.2 192zM646.4 409.6h-128v224c0 19.2-12.8 32-32 32s-32-12.8-32-32v-256c0-19.2 12.8-32 32-32h160c19.2 0 32 12.8 32 32s-12.8 32-32 32z" />
<glyph unicode="&#xe903;" glyph-name="alert-bell" d="M995.2 220.8c-38.4 0-105.6 22.4-131.2 163.2-48 265.6-32 467.2-336 480v0c-6.4 0-9.6 0-16 0s-9.6 0-16 0v0c-304-12.8-294.4-208-336-480-22.4-144-89.6-163.2-131.2-163.2-16 0-28.8 3.2-28.8 3.2v-192h1024v192c0 0-12.8-3.2-28.8-3.2zM960 96h-896v64c54.4 12.8 134.4 57.6 160 214.4 3.2 28.8 9.6 60.8 12.8 86.4 32 224 44.8 326.4 262.4 339.2h9.6c0 0 0 0 0 0v0h12.8c211.2-9.6 227.2-108.8 259.2-326.4 6.4-32 9.6-67.2 16-102.4 28.8-156.8 105.6-201.6 160-214.4v-60.8zM441.6 960h144v-64h-144v64zM384 0h256v-64h-256v64z" />
<glyph unicode="&#xe904;" glyph-name="alert-bell-solid" d="M1024 224c0 0-124.8-44.8-160 160-48 265.6-32 467.2-336 480v0c-6.4 0-9.6 0-16 0s-9.6 0-16 0v0c-304-12.8-294.4-208-336-480-32-204.8-160-160-160-160v-192h1024v192zM441.6 960h144v-64h-144v64zM384 0h256v-64h-256v64z" />
<glyph unicode="&#xe905;" glyph-name="alert-flag" d="M233.6 288l643.2 288c108.8 57.6 83.2 192-12.8 192 0 0 0 0 0 0h-630.4v-480zM297.6 704h566.4c3.2 0 12.8 0 19.2-16 3.2-16-3.2-38.4-35.2-54.4l-550.4-246.4v316.8zM137.6 774.4v-838.4h64v838.4c38.4 12.8 64 48 64 89.6 0 54.4-41.6 96-96 96s-96-41.6-96-96c0-41.6 28.8-76.8 64-89.6z" />
<glyph unicode="&#xe906;" glyph-name="alert-flag-solid" d="M265.6 864c0 54.4-41.6 96-96 96s-96-41.6-96-96c0-41.6 25.6-76.8 64-89.6v-838.4h64v838.4c38.4 12.8 64 48 64 89.6zM233.6 768h630.4c96 3.2 124.8-134.4 16-192l-646.4-288v480z" />
<glyph unicode="&#xe907;" glyph-name="alert-threshold" d="M342.4 480h-70.4l-80-160h70.4zM512 816l73.6-144h70.4l-144 288-144-288h70.4zM921.6 0h-819.2l64 128h-70.4l-96-192h1024l-96 192h-70.4zM761.6 320h70.4l-80 160h-70.4zM0 608h1024v-64h-1024v64zM0 256h1024v-64h-1024v64z" />
<glyph unicode="&#xe908;" glyph-name="app-group-san" d="M288 640c-160 0-288-44.8-288-99.2v-512c0-54.4 128-92.8 288-92.8s288 38.4 288 92.8v512c0 54.4-128 99.2-288 99.2zM64 531.2c22.4 16 102.4 44.8 224 44.8s201.6-28.8 224-44.8v0c-57.6-19.2-134.4-32-220.8-32-89.6 0-169.6 9.6-227.2 32v0zM291.2 435.2c83.2 0 160 9.6 220.8 28.8v-169.6c-57.6-19.2-134.4-32-220.8-32-89.6 0-169.6 9.6-227.2 32v169.6c60.8-19.2 140.8-28.8 227.2-28.8zM288 0c-131.2 0-201.6 25.6-224 38.4v185.6c60.8-19.2 140.8-28.8 227.2-28.8 83.2 0 156.8 9.6 220.8 28.8v-185.6c-22.4-12.8-96-38.4-224-38.4zM976 960h-864c-25.6 0-48-22.4-48-48v-240c19.2 6.4 41.6 12.8 64 19.2v76.8h832v-576h-320v-64h336c25.6 0 48 22.4 48 48v736c0 25.6-22.4 48-48 48zM928 832h-64v64h64v-64z" />
<glyph unicode="&#xe909;" glyph-name="app-group-vm" d="M976 896h-912c-35.2 0-64-28.8-64-64v-784c0-25.6 22.4-48 48-48h928c25.6 0 48 22.4 48 48v800c0 25.6-22.4 48-48 48zM928 800v-64h-64v64h64zM960 64h-896v614.4c3.2 0 3.2 0 6.4 0h880c3.2 0 6.4 0 9.6 3.2v-617.6zM684.8 483.2c-64 73.6-160 28.8-179.2 0-51.2 70.4-147.2 54.4-176-22.4l-60.8-140.8-73.6 176c-22.4 57.6-105.6 28.8-76.8-35.2l99.2-214.4c25.6-51.2 86.4-48 105.6 0l86.4 185.6c0 0 6.4 16 12.8 16 16 0 16-12.8 16-12.8v-179.2c0-64 86.4-60.8 86.4 0v147.2c0 57.6 89.6 57.6 89.6 0v-147.2c0-64 86.4-64 86.4 0v147.2c0 57.6 92.8 57.6 92.8 0v-147.2c0-60.8 86.4-60.8 86.4 0v160c3.2 121.6-137.6 137.6-195.2 67.2z" />
<glyph unicode="&#xe90a;" glyph-name="app-window" d="M963.2 864h-902.4c-32 0-60.8-28.8-60.8-60.8v-803.2c0-35.2 28.8-64 60.8-64h899.2c35.2 0 60.8 28.8 60.8 60.8v806.4c3.2 32-25.6 60.8-57.6 60.8zM960 800v-160h-896v160h896zM64 0v576h896v-576h-896zM832 736h64v-64h-64v64z" />
<glyph unicode="&#xe90b;" glyph-name="app-window-FRU" d="M131.2 528h188.8v-60.8h-128v-99.2h128v-64h-128v-121.6h-60.8v345.6zM352 528h105.6c105.6 0 118.4-67.2 118.4-112 0-41.6-16-76.8-51.2-92.8v0c0 0 3.2-3.2 12.8-16l67.2-124.8h-67.2l-67.2 121.6h-57.6v-121.6h-60.8v345.6zM467.2 368c32 0 44.8 12.8 44.8 44.8s-6.4 51.2-54.4 51.2h-41.6v-96h51.2zM611.2 528h60.8v-224c0-44.8 32-64 76.8-64s83.2 19.2 83.2 64v224h60.8v-224c0-76.8-60.8-128-144-128-80 0-137.6 51.2-137.6 128v224zM976 880h-924.8c-28.8 0-51.2-22.4-51.2-51.2v-764.8c0-25.6 22.4-48 48-48h928c25.6 0 48 22.4 48 48v768c0 25.6-22.4 48-48 48zM960 80h-896v544h896v-544zM960 720h-64v64h64v-64z" />
<glyph unicode="&#xe90c;" glyph-name="app-window-mirror" d="M672 544h64v-64h-64v64zM800 640h-768c-19.2 0-32-12.8-32-32v-640c0-19.2 12.8-32 32-32h768c19.2 0 32 12.8 32 32v640c0 19.2-12.8 32-32 32zM768 0h-704v384h704v-384zM768 448h-704v128h704v-128zM832 864h64v-64h-64v64zM992 960h-768c-19.2 0-32-12.8-32-32v-224h768v-384h-64v-64h96c19.2 0 32 12.8 32 32v640c0 19.2-12.8 32-32 32zM256 768v128h704v-128h-704z" />
<glyph unicode="&#xe90d;" glyph-name="arrow-arrange" d="M790.4 585.6l112-108.8h-358.4v355.2l112-108.8 44.8 44.8-188.8 188.8-185.6-188.8 44.8-44.8 108.8 112v-358.4h-355.2l108.8 108.8-44.8 44.8-188.8-185.6 188.8-188.8 44.8 44.8-112 112h358.4v-358.4l-108.8 112-44.8-44.8 185.6-188.8 188.8 188.8-44.8 44.8-112-112v358.4h355.2l-108.8-112 44.8-44.8 188.8 188.8-188.8 185.6z" />
<glyph unicode="&#xe90e;" glyph-name="arrow-back-left" d="M550.4 876.8c-182.4 0-307.2-108.8-460.8-268.8v339.2h-64v-444.8h441.6v64h-326.4c156.8 160 262.4 243.2 409.6 243.2 262.4 0 380.8-198.4 380.8-396.8 0-224-169.6-396.8-396.8-396.8v-64c262.4 0 460.8 198.4 460.8 460.8 3.2 272-179.2 464-444.8 464z" />
<glyph unicode="&#xe90f;" glyph-name="arrow-circ-down" d="M0 448c0-281.6 230.4-512 512-512s512 230.4 512 512c0 281.6-230.4 512-512 512s-512-230.4-512-512zM960 448c0-246.4-201.6-448-448-448s-448 201.6-448 448 201.6 448 448 448c246.4 0 448-201.6 448-448zM336 457.6l-48-41.6 224-256 224 256-48 41.6-144-163.2v425.6h-64v-425.6z" />
<glyph unicode="&#xe910;" glyph-name="arrow-circ-left" d="M512-64c281.6 0 512 230.4 512 512s-230.4 512-512 512c-281.6 0-512-230.4-512-512s230.4-512 512-512zM512 896c246.4 0 448-201.6 448-448s-201.6-448-448-448c-246.4 0-448 201.6-448 448s201.6 448 448 448zM521.6 272l-163.2 144h425.6v64h-425.6l163.2 144-41.6 48-256-224 256-224z" />
<glyph unicode="&#xe911;" glyph-name="arrow-circ-right" d="M512-64c281.6 0 512 230.4 512 512s-230.4 512-512 512c-281.6 0-512-230.4-512-512s230.4-512 512-512zM512 896c246.4 0 448-201.6 448-448s-201.6-448-448-448-448 201.6-448 448c0 246.4 201.6 448 448 448zM502.4 272l41.6-48 256 224-256 224-41.6-48 163.2-144h-425.6v-64h425.6z" />
<glyph unicode="&#xe912;" glyph-name="arrow-circ-solid" d="M883.2 800c-195.2 204.8-521.6 214.4-723.2 19.2-204.8-195.2-214.4-521.6-19.2-723.2 195.2-204.8 518.4-211.2 723.2-16 204.8 192 214.4 518.4 19.2 720zM736 425.6l-300.8-243.2c-6.4-3.2-12.8-6.4-16-6.4-9.6 0-16 6.4-16 19.2v505.6c0 12.8 6.4 19.2 16 19.2 6.4 0 9.6-3.2 16-6.4l300.8-243.2c19.2-12.8 19.2-32 0-44.8zM467.2 291.2l195.2 156.8-195.2 156.8z" />
<glyph unicode="&#xe913;" glyph-name="arrow-circ-solid-down" d="M512-64c281.6 0 512 230.4 512 512s-230.4 512-512 512c-281.6 0-512-230.4-512-512s230.4-512 512-512zM348.8 470.4l115.2-131.2v384h96v-384l115.2 131.2 73.6-64-236.8-268.8-236.8 268.8 73.6 64z" />
<glyph unicode="&#xe914;" glyph-name="arrow-circ-solid-left" d="M0 448c0-281.6 230.4-512 512-512s512 230.4 512 512c0 281.6-230.4 512-512 512s-512-230.4-512-512zM534.4 611.2l-131.2-115.2h384v-96h-384l131.2-115.2-64-73.6-268.8 236.8 268.8 236.8 64-73.6z" />
<glyph unicode="&#xe915;" glyph-name="arrow-circ-solid-right" d="M1024 448c0 281.6-230.4 512-512 512s-512-230.4-512-512c0-281.6 230.4-512 512-512s512 230.4 512 512zM489.6 284.8l131.2 115.2h-384v96h384l-131.2 115.2 64 73.6 268.8-236.8-268.8-236.8-64 73.6z" />
<glyph unicode="&#xe916;" glyph-name="arrow-circ-solid-up" d="M512 960c-281.6 0-512-230.4-512-512s230.4-512 512-512c281.6 0 512 230.4 512 512s-230.4 512-512 512zM675.2 425.6l-115.2 131.2v-384h-96v384l-115.2-131.2-73.6 64 236.8 268.8 236.8-268.8-73.6-64z" />
<glyph unicode="&#xe917;" glyph-name="arrow-circ-up" d="M1024 448c0 281.6-230.4 512-512 512s-512-230.4-512-512c0-281.6 230.4-512 512-512s512 230.4 512 512zM64 448c0 246.4 201.6 448 448 448s448-201.6 448-448-201.6-448-448-448c-246.4 0-448 201.6-448 448zM688 438.4l48 41.6-224 256-224-256 48-41.6 144 163.2v-425.6h64v425.6z" />
<glyph unicode="&#xe918;" glyph-name="arrow-curser" d="M601.6-64c-12.8 0-22.4 6.4-28.8 16l-188.8 355.2-169.6-166.4c-6.4-9.6-22.4-12.8-32-6.4-12.8 6.4-19.2 16-19.2 28.8l-3.2 764.8c0 12.8 6.4 22.4 16 28.8s22.4 3.2 32-3.2l640-470.4c9.6-9.6 16-22.4 12.8-35.2s-16-22.4-28.8-22.4h-230.4l188.8-358.4c3.2-6.4 3.2-16 3.2-25.6-3.2-9.6-9.6-16-16-19.2l-160-83.2c-6.4-3.2-12.8-3.2-16-3.2zM393.6 393.6c3.2 0 3.2 0 6.4 0 9.6 0 19.2-6.4 22.4-16l192-364.8 102.4 54.4-198.4 374.4c-6.4 9.6-6.4 22.4 0 32s16 16 28.8 16h188.8l-512 374.4v-624l144 144c9.6 6.4 16 9.6 25.6 9.6z" />
<glyph unicode="&#xe919;" glyph-name="arrow-cursor-clock" d="M336-80c-12.8 0-22.4 6.4-28.8 19.2l-102.4 211.2-147.2-147.2c-9.6-9.6-22.4-12.8-35.2-6.4s-19.2 16-19.2 28.8v736c0 12.8 6.4 22.4 19.2 28.8 9.6 6.4 22.4 3.2 32-3.2l601.6-444.8c9.6-6.4 16-22.4 12.8-35.2s-12.8-22.4-28.8-22.4l-195.2-22.4 102.4-211.2c6.4-16 0-35.2-16-41.6l-179.2-86.4c-6.4-3.2-12.8-3.2-16-3.2zM214.4 236.8c3.2 0 3.2 0 6.4 0 9.6-3.2 19.2-9.6 22.4-16l108.8-220.8 121.6 57.6-108.8 220.8c-3.2 9.6-3.2 19.2 0 28.8 6.4 9.6 12.8 16 25.6 16l160 16-483.2 358.4v-595.2l124.8 124.8c6.4 6.4 12.8 9.6 22.4 9.6zM854.4 627.2h-137.6v182.4h64v-118.4h73.6zM761.6 880c108.8 0 195.2-86.4 195.2-195.2s-86.4-195.2-195.2-195.2c-108.8 0-195.2 86.4-195.2 195.2s86.4 195.2 195.2 195.2zM761.6 944c-144 0-259.2-115.2-259.2-259.2s115.2-259.2 259.2-259.2 259.2 115.2 259.2 259.2-115.2 259.2-259.2 259.2v0z" />
<glyph unicode="&#xe91a;" glyph-name="arrow-cursor-tri" d="M192 6.4c-3.2 0-9.6 0-12.8 3.2-12.8 6.4-19.2 16-19.2 32l35.2 816c0 12.8 9.6 22.4 19.2 28.8 12.8 3.2 25.6 3.2 35.2-6.4l601.6-560c9.6-9.6 12.8-22.4 6.4-35.2s-16-19.2-28.8-19.2l-361.6 6.4-252.8-252.8c-3.2-9.6-12.8-12.8-22.4-12.8zM256 787.2l-25.6-668.8 204.8 204.8c6.4 6.4 12.8 9.6 22.4 9.6l291.2-3.2-492.8 457.6z" />
<glyph unicode="&#xe91b;" glyph-name="arrow-down" d="M544 92.8v844.8h-64v-844.8l-329.6 377.6-48-41.6 409.6-470.4 409.6 470.4-48 41.6z" />
<glyph unicode="&#xe91c;" glyph-name="arrow-download" d="M960 288v-288h-896v288h-64v-352h1024v352zM844.8 457.6l-44.8 44.8-256-246.4v672h-64v-672l-256 249.6-44.8-44.8 332.8-326.4 332.8 323.2zM512 224v0 0 0z" />
<glyph unicode="&#xe91d;" glyph-name="arrow-download-doc" d="M550.4 60.8l-54.4-57.6c-3.2-3.2-9.6-6.4-12.8-6.4s-9.6 0-12.8 6.4l-336 339.2c-3.2 6.4-3.2 6.4-3.2 6.4s0 0 0 3.2c3.2 0 6.4 0 12.8 0h208v544h256v-230.4c9.6 3.2 19.2 6.4 32 6.4h32v224c0 35.2-28.8 64-64 64h-256c-35.2 0-64-28.8-64-64v-480h-144c-35.2 0-57.6-9.6-70.4-38.4-12.8-22.4-9.6-54.4 12.8-80l339.2-339.2c16-16 35.2-22.4 57.6-22.4s41.6 9.6 57.6 25.6l54.4 54.4c-19.2 6.4-35.2 22.4-44.8 44.8zM992 608h-352c-19.2 0-32-12.8-32-32v-480c0-19.2 12.8-32 32-32h352c19.2 0 32 12.8 32 32v480c0 19.2-12.8 32-32 32zM928 192h-224v64h224v-64zM928 320h-224v64h224v-64zM928 448h-224v64h224v-64z" />
<glyph unicode="&#xe91e;" glyph-name="arrow-download-doc-solid" d="M550.4 60.8l-54.4-57.6c-3.2-3.2-9.6-6.4-12.8-6.4s-9.6 0-12.8 6.4l-336 339.2c-3.2 6.4-3.2 6.4-3.2 6.4s0 0 0 3.2c3.2 0 6.4 0 12.8 0h208v544h256v-227.2c9.6 3.2 19.2 6.4 32 6.4h32v220.8c0 35.2-28.8 64-64 64h-256c-35.2 0-64-28.8-64-64v-480h-144c-35.2 0-57.6-9.6-70.4-38.4-12.8-22.4-9.6-54.4 12.8-80l339.2-339.2c16-16 35.2-22.4 57.6-22.4s41.6 9.6 57.6 25.6l54.4 54.4c-19.2 6.4-35.2 22.4-44.8 44.8zM992 64h-352c-19.2 0-32 12.8-32 32v480c0 19.2 12.8 32 32 32h352c19.2 0 32-12.8 32-32v-480c0-19.2-12.8-32-32-32z" />
<glyph unicode="&#xe91f;" glyph-name="arrow-download-gear" d="M1024 275.2v70.4l-80 28.8-16 44.8 38.4 76.8-51.2 48-76.8-38.4-48 16-32 86.4h-70.4l-25.6-83.2-48-19.2-83.2 41.6-51.2-48 44.8-83.2-22.4-48-86.4-28.8v-70.4l86.4-28.8 22.4-48-41.6-83.2 48-48 83.2 41.6 48-22.4 28.8-83.2h70.4l25.6 86.4 48 19.2 80-35.2 48 48-35.2 80 16 48 80 32zM720 208c-54.4 0-96 41.6-96 96 0 51.2 41.6 96 96 96s96-41.6 96-96c0-51.2-44.8-96-96-96zM489.6 64l-57.6-57.6c-3.2-3.2-9.6-6.4-12.8-6.4s-9.6 0-12.8 6.4l-336 336c-3.2 6.4-3.2 6.4-3.2 6.4s0 0 0 3.2c3.2 0 6.4 0 12.8 0h208v544h256v-320c0 0 0 0 0 0l64-32v352c0 35.2-28.8 64-64 64h-256c-35.2 0-64-28.8-64-64v-480h-144c-35.2 0-57.6-9.6-70.4-38.4-12.8-22.4-9.6-54.4 12.8-80l339.2-339.2c16-16 35.2-22.4 57.6-22.4s41.6 9.6 57.6 25.6l60.8 64c-3.2 0-9.6 3.2-12.8 6.4l-35.2 32z" />
<glyph unicode="&#xe920;" glyph-name="arrow-drop" d="M544 70.4v550.4c-3.2 108.8 19.2 188.8 134.4 243.2 105.6 48 214.4 6.4 214.4 6.4l25.6 57.6c-6.4 3.2-134.4 54.4-265.6-6.4-156.8-73.6-176-188.8-172.8-304v-553.6l-329.6 332.8-44.8-44.8 406.4-406.4 406.4 406.4-44.8 44.8-329.6-326.4z" />
<glyph unicode="&#xe921;" glyph-name="arrow-export" d="M252.8 739.2h505.6l-601.6-601.6 44.8-44.8 601.6 601.6v-505.6h64v614.4h-614.4z" />
<glyph unicode="&#xe922;" glyph-name="arrow-import" d="M803.2 201.6l-601.6 601.6-44.8-44.8 601.6-601.6h-505.6v-64h614.4v614.4h-64z" />
<glyph unicode="&#xe923;" glyph-name="arrow-import-left" d="M246.4 64h649.6v649.6h-128v-428.8l-547.2 547.2-92.8-92.8 547.2-547.2h-428.8z" />
<glyph unicode="&#xe924;" glyph-name="arrow-left" d="M518.4 86.4l-377.6 329.6h876.8v64h-876.8l377.6 329.6-41.6 48-470.4-409.6 470.4-409.6z" />
<glyph unicode="&#xe925;" glyph-name="arrow-migrate" d="M576 192h-512v512h512v-124.8h64v124.8c0 35.2-28.8 64-64 64h-512c-35.2 0-64-28.8-64-64v-512c0-35.2 28.8-64 64-64h512c35.2 0 64 28.8 64 64v124.8h-64v-124.8zM780.8 694.4l-44.8-44.8 166.4-169.6h-572.8v-64h572.8l-166.4-169.6 44.8-44.8 243.2 246.4z" />
<glyph unicode="&#xe926;" glyph-name="arrow-move-right" d="M960 249.6l-416 416c-121.6 121.6-320 121.6-444.8 0l-6.4-9.6c-60.8-57.6-92.8-137.6-92.8-220.8s32-163.2 92.8-220.8l44.8 44.8c-48 48-73.6 108.8-73.6 176s25.6 128 73.6 176l6.4 6.4c96 96 256 96 352 0l416-416h-368v-64h480v448h-64v-336z" />
<glyph unicode="&#xe927;" glyph-name="arrow-progress" d="M512-48c-272 0-496 224-496 496 0 35.2 28.8 64 64 64s64-28.8 64-64c0-201.6 166.4-368 368-368s368 166.4 368 368-166.4 368-368 368c-35.2 0-64 28.8-64 64s28.8 64 64 64c272 0 496-224 496-496s-224-496-496-496z" />
<glyph unicode="&#xe928;" glyph-name="arrow-refresh" d="M899.2 876.8v-278.4l-169.6 163.2-12.8 6.4c-131.2 105.6-339.2 105.6-486.4 0-108.8-80-169.6-201.6-169.6-336s60.8-256 169.6-336c70.4-51.2 156.8-80 243.2-80s172.8 25.6 243.2 80l-38.4 51.2c-121.6-89.6-288-89.6-409.6 0-92.8 67.2-144 169.6-144 284.8 0 112 51.2 214.4 144 284.8 121.6 89.6 297.6 89.6 406.4 3.2l172.8-163.2h-272v-64h384v384h-60.8z" />
<glyph unicode="&#xe929;" glyph-name="arrow-reset" d="M476.8 3.2c-137.6 12.8-252.8 115.2-281.6 249.6l-64-12.8c35.2-163.2 172.8-284.8 339.2-300.8 12.8 0 25.6-3.2 38.4-3.2 112 0 214.4 44.8 288 131.2 83.2 92.8 115.2 217.6 89.6 339.2-38.4 163.2-182.4 291.2-342.4 300.8h-268.8l185.6 211.2-48 41.6-256-288 288-256 41.6 48-198.4 179.2h252.8c131.2-6.4 252.8-112 281.6-249.6 22.4-102.4-3.2-204.8-73.6-284.8-70.4-76.8-169.6-115.2-272-105.6z" />
<glyph unicode="&#xe92a;" glyph-name="arrow-right" d="M505.6 809.6l377.6-329.6h-876.8v-64h876.8l-377.6-329.6 41.6-48 470.4 409.6-470.4 409.6z" />
<glyph unicode="&#xe92b;" glyph-name="arrow-sync-vert" d="M800 112c0-19.2-12.8-32-32-32h-512c-19.2 0-32 12.8-32 32v358.4l102.4-124.8 48 41.6-182.4 224-185.6-220.8 48-41.6 105.6 121.6v-358.4c0-54.4 41.6-96 96-96h512c54.4 0 96 41.6 96 96v96h-64v-96zM697.6 547.2l-48-41.6 185.6-220.8 182.4 220.8-48 41.6-105.6-124.8v361.6c0 54.4-41.6 96-96 96h-512c-54.4 0-96-41.6-96-96v-96h64v96c0 19.2 12.8 32 32 32h512c19.2 0 32-12.8 32-32v-358.4l-102.4 121.6z" />
<glyph unicode="&#xe92c;" glyph-name="arrow-thick-down" d="M576 201.6v758.4h-128v-758.4l-272 313.6-96-83.2 432-496 432 496-96 83.2z" />
<glyph unicode="&#xe92d;" glyph-name="arrow-thick-left" d="M265.6 384h758.4v128h-758.4l313.6 272-83.2 96-496-432 496-432 83.2 96z" />
<glyph unicode="&#xe92e;" glyph-name="arrow-thick-right" d="M758.4 512h-758.4v-128h758.4l-313.6-272 83.2-96 496 432-496 432-83.2-96z" />
<glyph unicode="&#xe92f;" glyph-name="arrow-thick-up" d="M448 694.4v-758.4h128v758.4l272-313.6 96 83.2-432 496-432-496 96-83.2z" />
<glyph unicode="&#xe930;" glyph-name="arrow-tri-down" d="M108.8 656h806.4l-403.2-403.2-403.2 403.2zM0 688c0-9.6 3.2-16 9.6-22.4l480-480c12.8-12.8 32-12.8 44.8 0l480 480c6.4 6.4 9.6 12.8 9.6 22.4 0 16-12.8 32-32 32h-960c-19.2 0-32-16-32-32v0z" />
<glyph unicode="&#xe931;" glyph-name="arrow-tri-down-solid" d="M1014.4 665.6l-480-480c-12.8-12.8-32-12.8-44.8 0l-480 480c-19.2 19.2-6.4 54.4 22.4 54.4h960c28.8 0 41.6-35.2 22.4-54.4z" />
<glyph unicode="&#xe932;" glyph-name="arrow-tri-left" d="M720 851.2v-806.4l-403.2 403.2 403.2 403.2zM752 960c-9.6 0-16-3.2-22.4-9.6l-480-480c-12.8-12.8-12.8-32 0-44.8l480-480c6.4-6.4 16-9.6 22.4-9.6 16 0 32 12.8 32 32v960c0 19.2-16 32-32 32v0z" />
<glyph unicode="&#xe933;" glyph-name="arrow-tri-left-solid" d="M752-64c16 0 32 12.8 32 32v960c0 19.2-16 32-32 32-9.6 0-16-3.2-22.4-9.6l-480-480c-12.8-12.8-12.8-32 0-44.8l480-480c6.4-6.4 12.8-9.6 22.4-9.6v0z" />
<glyph unicode="&#xe934;" glyph-name="arrow-tri-right" d="M304 44.8v806.4l403.2-403.2-403.2-403.2zM272-64c9.6 0 16 3.2 22.4 9.6l480 480c12.8 12.8 12.8 32 0 44.8l-480 480c-6.4 6.4-12.8 9.6-22.4 9.6-16 0-32-12.8-32-32v-960c0-19.2 16-32 32-32v0z" />
<glyph unicode="&#xe935;" glyph-name="arrow-tri-right-solid" d="M272 960c-16 0-32-12.8-32-32v-960c0-19.2 16-32 32-32 9.6 0 16 3.2 22.4 9.6l480 480c12.8 12.8 12.8 32 0 44.8l-480 480c-6.4 6.4-12.8 9.6-22.4 9.6v0z" />
<glyph unicode="&#xe936;" glyph-name="arrow-tri-up" d="M915.2 240h-806.4l403.2 403.2 403.2-403.2zM1024 208c0 9.6-3.2 16-9.6 22.4l-480 480c-12.8 12.8-32 12.8-44.8 0l-480-480c-6.4-6.4-9.6-12.8-9.6-22.4 0-16 12.8-32 32-32h960c19.2 0 32 16 32 32v0z" />
<glyph unicode="&#xe937;" glyph-name="arrow-tri-up-solid" d="M9.6 230.4l480 480c12.8 12.8 32 12.8 44.8 0l480-480c19.2-19.2 6.4-54.4-22.4-54.4h-960c-28.8 0-41.6 35.2-22.4 54.4z" />
<glyph unicode="&#xe938;" glyph-name="arrow-undo" d="M675.2 681.6h-537.6l224 195.2-44.8 48-310.4-275.2 310.4-310.4 44.8 44.8-233.6 233.6h547.2c192 0 278.4-150.4 278.4-291.2 0-144-86.4-291.2-278.4-291.2h-444.8v-64h444.8c201.6 0 342.4 147.2 342.4 355.2s-140.8 355.2-342.4 355.2z" />
<glyph unicode="&#xe939;" glyph-name="arrow-up" d="M102.4 467.2l48-41.6 329.6 377.6v-844.8h64v844.8l329.6-377.6 48 41.6-409.6 470.4z" />
<glyph unicode="&#xe93a;" glyph-name="arrow-upload" d="M844.8 630.4l-332.8 323.2-332.8-323.2 44.8-44.8 256 249.6v-672h64v672l256-249.6 44.8 44.8zM512 864v0 0 0zM960 0h-896v288h-64v-352h1024v352h-64z" />
<glyph unicode="&#xe93b;" glyph-name="arrows-clone" d="M588.8 416h320l-160-179.2 48-41.6 227.2 252.8-227.2 249.6-48-41.6 160-176h-320zM275.2 240l-160 176h320v64h-320l160 179.2-48 41.6-227.2-252.8 227.2-249.6z" />
<glyph unicode="&#xe93c;" glyph-name="arrows-compare" d="M268.8 457.6l38.4-51.2 320 249.6-320 249.6-38.4-51.2 214.4-166.4h-483.2v-64h483.2zM755.2 438.4l-38.4 51.2-320-249.6 320-249.6 38.4 51.2-214.4 166.4h483.2v64h-483.2z" />
<glyph unicode="&#xe93d;" glyph-name="arrows-comparison" d="M707.2 905.6l-38.4-51.2 214.4-166.4h-483.2v-64h483.2l-214.4-166.4 38.4-51.2 320 249.6zM355.2 438.4l-38.4 51.2-320-249.6 320-249.6 38.4 51.2-214.4 166.4h483.2v64h-483.2z" />
<glyph unicode="&#xe93e;" glyph-name="arrows-spin" d="M150.4 470.4c0 217.6 156.8 384 361.6 384 118.4 0 243.2-54.4 310.4-134.4h-211.2v-64h304v304h-64v-179.2c-83.2 83.2-214.4 134.4-339.2 134.4-243.2 0-425.6-192-425.6-448h64zM512 44.8c-118.4 0-240 54.4-310.4 134.4h211.2v64h-304v-307.2h64v179.2c83.2-83.2 214.4-134.4 339.2-134.4 243.2 0 425.6 192 425.6 448h-64c0-220.8-153.6-384-361.6-384z" />
<glyph unicode="&#xe93f;" glyph-name="arrows-sync-horiz" d="M96 672c0 19.2 12.8 32 32 32h704l-179.2-134.4 38.4-51.2 291.2 217.6-291.2 217.6-38.4-51.2 179.2-134.4h-704c-54.4 0-96-41.6-96-96v-224h64v224zM928 224c0-19.2-12.8-32-32-32h-704l179.2 134.4-38.4 51.2-291.2-217.6 291.2-217.6 38.4 51.2-179.2 134.4h704c54.4 0 96 41.6 96 96v224h-64v-224z" />
<glyph unicode="&#xe940;" glyph-name="arrows-update" d="M582.4 64c-86.4-16-169.6 35.2-217.6 83.2l-256 268.8h288v64h-396.8v-396.8h64v284.8l256-265.6c51.2-54.4 134.4-105.6 227.2-105.6 16 0 32 0 44.8 3.2 124.8 22.4 227.2 195.2 230.4 201.6l-54.4 32c-22.4-41.6-105.6-153.6-185.6-169.6zM960 528l-256 265.6c-60.8 64-163.2 121.6-275.2 102.4-124.8-25.6-227.2-195.2-230.4-201.6l54.4-32c25.6 41.6 105.6 153.6 188.8 169.6 86.4 16 169.6-35.2 217.6-83.2l259.2-268.8h-288v-64h393.6v396.8h-64v-284.8z" />
<glyph unicode="&#xe941;" glyph-name="assistance" d="M492.8 492.8c-25.6-6.4-48-28.8-54.4-54.4-12.8-57.6 35.2-108.8 92.8-96 25.6 6.4 48 28.8 57.6 54.4 12.8 57.6-38.4 108.8-96 96zM771.2 400h-3.2c44.8 38.4 80 86.4 99.2 144 3.2 0 6.4-3.2 9.6-3.2h3.2c0 0 0 0 3.2 0 60.8 3.2 112 51.2 112 115.2 0 60.8-48 112-112 115.2 0 0 0 0-3.2 0h-3.2c-19.2 0-32-16-32-32v-112c-9.6-99.2-67.2-182.4-150.4-227.2h-38.4c0-6.4-3.2-12.8-3.2-19.2-3.2-16-9.6-32-19.2-44.8h140.8c86.4 0 156.8-76.8 156.8-166.4v-169.6h-835.2v169.6c0 89.6 73.6 166.4 160 166.4h140.8c-12.8 19.2-22.4 41.6-22.4 64h-118.4c-124.8 0-224-108.8-224-230.4v-233.6h960v236.8c0 121.6-99.2 227.2-220.8 227.2zM371.2 438.4c0 3.2 0 9.6 3.2 12.8 3.2 16 12.8 32 22.4 48-60.8 38.4-99.2 105.6-99.2 182.4 0 118.4 96 214.4 214.4 214.4s217.6-96 217.6-217.6c0-76.8-41.6-144-99.2-182.4 12.8-19.2 22.4-38.4 25.6-60.8 83.2 48 140.8 137.6 140.8 243.2-3.2 156.8-131.2 281.6-284.8 281.6s-278.4-124.8-278.4-278.4c0-105.6 54.4-195.2 137.6-243.2zM652.8 60.8h185.6c16 0 28.8 12.8 28.8 28.8v67.2c0 16-12.8 28.8-28.8 28.8h-185.6c-16 0-28.8-12.8-28.8-28.8v-67.2c0-16 12.8-28.8 28.8-28.8z" />
<glyph unicode="&#xe942;" glyph-name="audio-ear" d="M480-60.8c-3.2 0-3.2 0 0 0-163.2 0-192 118.4-201.6 156.8-3.2 16 6.4 35.2 22.4 38.4s35.2-6.4 38.4-25.6c12.8-54.4 38.4-105.6 137.6-108.8 105.6 0 121.6 57.6 147.2 172.8 12.8 57.6 25.6 115.2 57.6 166.4 9.6 16 19.2 28.8 28.8 44.8 48 70.4 89.6 134.4 89.6 252.8 0 166.4-92.8 256-265.6 256-108.8 0-192-32-246.4-96-64-73.6-70.4-176-54.4-246.4 3.2-19.2-9.6-35.2-25.6-38.4s-35.2 6.4-38.4 25.6c-22.4 112 3.2 224 67.2 300.8 44.8 57.6 134.4 121.6 294.4 121.6 208 0 329.6-118.4 329.6-320 0-137.6-51.2-214.4-99.2-288-9.6-12.8-19.2-28.8-28.8-41.6-25.6-41.6-38.4-96-48-147.2-19.2-105.6-44.8-224-204.8-224zM412.8 182.4c-96 0-99.2 105.6-99.2 144 0 19.2 12.8 32 32 32s32-12.8 32-32c3.2-76.8 19.2-83.2 35.2-83.2 3.2 0 3.2 0 3.2 0 3.2 3.2 3.2 25.6 3.2 41.6 3.2 38.4 3.2 83.2 35.2 121.6 38.4 44.8 51.2 99.2 38.4 124.8-3.2 9.6-9.6 12.8-19.2 16-25.6 3.2-38.4-12.8-54.4-41.6-9.6-16-22.4-35.2-41.6-38.4-9.6 0-28.8-3.2-48 22.4-25.6 38.4-41.6 134.4 0 214.4 25.6 48 80 102.4 198.4 99.2 115.2-3.2 156.8-67.2 172.8-105.6 28.8-67.2 12.8-144-19.2-176-12.8-12.8-32-12.8-44.8 0s-12.8 32 0 44.8c12.8 12.8 22.4 64 6.4 108.8-16 41.6-57.6 64-115.2 64-70.4 3.2-118.4-22.4-144-73.6-19.2-41.6-16-86.4-9.6-115.2 19.2 28.8 51.2 64 108.8 57.6 35.2-3.2 57.6-22.4 70.4-54.4 19.2-54.4 0-134.4-51.2-192-16-19.2-19.2-51.2-22.4-83.2 3.2-32 0-96-67.2-96zM480-64c-3.2 0-3.2 0 0 0-163.2 0-192 118.4-201.6 156.8-3.2 16 6.4 35.2 22.4 38.4s35.2-6.4 38.4-25.6c12.8-54.4 38.4-105.6 137.6-108.8 0 0 0 0 3.2 0 102.4 0 121.6 60.8 144 172.8 12.8 57.6 25.6 115.2 57.6 166.4 9.6 16 19.2 28.8 28.8 44.8 48 70.4 89.6 134.4 89.6 252.8 0 166.4-92.8 256-265.6 256-108.8 0-192-32-246.4-96-64-73.6-70.4-176-54.4-246.4 3.2-16-9.6-35.2-25.6-38.4s-35.2 6.4-38.4 25.6c-22.4 112 3.2 224 67.2 300.8 44.8 54.4 131.2 121.6 294.4 121.6 208 0 329.6-118.4 329.6-320 0-137.6-51.2-214.4-99.2-288-9.6-12.8-19.2-28.8-28.8-41.6-25.6-41.6-38.4-96-48-147.2-19.2-105.6-44.8-224-204.8-224zM412.8 179.2c-96 0-99.2 105.6-99.2 144 0 19.2 12.8 32 32 32s32-12.8 32-32c3.2-76.8 19.2-83.2 35.2-83.2 3.2 0 3.2 0 3.2 0 3.2 3.2 3.2 25.6 3.2 41.6 3.2 38.4 3.2 83.2 35.2 121.6 38.4 44.8 51.2 99.2 38.4 124.8 0 12.8-3.2 16-12.8 16-25.6 3.2-38.4-12.8-54.4-41.6-9.6-16-22.4-35.2-41.6-38.4-9.6 0-28.8-3.2-48 22.4-25.6 38.4-41.6 134.4 0 214.4 25.6 48 80 102.4 198.4 99.2 108.8 0 153.6-64 169.6-102.4 28.8-67.2 12.8-144-19.2-176-12.8-12.8-32-12.8-44.8 0s-12.8 32 0 44.8c12.8 12.8 22.4 64 6.4 108.8-16 41.6-57.6 64-115.2 64-73.6 0-118.4-22.4-144-73.6-19.2-41.6-16-86.4-9.6-115.2 19.2 28.8 51.2 64 108.8 57.6 35.2-3.2 57.6-22.4 70.4-54.4 19.2-54.4 0-134.4-51.2-192-16-19.2-19.2-51.2-22.4-83.2 0-35.2-3.2-99.2-70.4-99.2z" />
<glyph unicode="&#xe943;" glyph-name="audio-headset" d="M515.2 960c-288 0-515.2-211.2-515.2-480v-320c0-19.2 12.8-32 32-32h32v-32c0-89.6 70.4-160 160-160h76.8v441.6h-76.8c-89.6 0-160-70.4-160-160v262.4c0 236.8 192 416 451.2 416 252.8 0 444.8-179.2 444.8-416v-262.4c0 89.6-70.4 160-160 160h-76.8v-441.6h76.8c89.6 0 160 70.4 160 160v32h32c19.2 0 32 12.8 32 32v320c0 272-217.6 480-508.8 480zM128 217.6c0 54.4 41.6 96 96 96h12.8v-313.6h-12.8c-54.4 0-96 41.6-96 96v121.6zM896 96c0-54.4-41.6-96-96-96h-12.8v313.6h12.8c54.4 0 96-41.6 96-96v-121.6z" />
<glyph unicode="&#xe944;" glyph-name="audio-headset-alt" d="M1024 451.2c0 281.6-224 486.4-508.8 486.4s-515.2-204.8-515.2-486.4c0-89.6 0-345.6 0-345.6h64v-144h224v384h-224v108.8c0 236.8 195.2 419.2 451.2 419.2 252.8 0 444.8-182.4 444.8-422.4v-108.8h-224v-384h224v144h64c0 3.2 0 252.8 0 348.8zM128 278.4h96v-256h-96v256zM896 22.4h-96v256h96v-256z" />
<glyph unicode="&#xe945;" glyph-name="audio-notes" d="M1024 902.4c0 16-6.4 32-19.2 44.8-12.8 9.6-32 16-48 12.8l-524.8-92.8c-28.8-3.2-48-25.6-48-54.4v-531.2c-19.2 12.8-41.6 25.6-67.2 28.8-54.4 12.8-112 6.4-166.4-19.2-118.4-48-179.2-163.2-137.6-256 19.2-44.8 60.8-80 118.4-92.8 16-3.2 35.2-6.4 54.4-6.4 38.4 0 76.8 9.6 112 25.6 54.4 25.6 99.2 64 124.8 108.8 19.2 32 25.6 64 25.6 96v0 457.6l512 89.6c0-121.6 0-272 0-374.4-19.2 12.8-41.6 22.4-64 28.8-51.2 12.8-112 6.4-166.4-19.2s-99.2-64-124.8-108.8c-28.8-51.2-32-102.4-12.8-147.2 28.8-64 96-99.2 172.8-99.2 35.2 0 73.6 6.4 112 22.4 96 41.6 153.6 128 150.4 208-3.2 28.8-3.2 672-3.2 678.4zM368 102.4c-19.2-35.2-54.4-64-96-83.2s-86.4-22.4-124.8-12.8c-35.2 9.6-60.8 28.8-73.6 54.4-25.6 60.8 19.2 137.6 102.4 176 28.8 12.8 57.6 19.2 86.4 19.2 12.8 0 28.8 0 41.6-3.2 35.2-9.6 64-28.8 76.8-54.4v0c6.4-32 3.2-64-12.8-96zM448 688v118.4l512 89.6c0-16 0-60.8 0-118.4l-512-89.6zM848 73.6c-83.2-38.4-172.8-19.2-198.4 41.6-12.8 28.8-9.6 60.8 9.6 92.8 19.2 35.2 54.4 64 96 83.2 28.8 12.8 57.6 19.2 86.4 19.2 12.8 0 25.6 0 38.4-3.2 35.2-9.6 60.8-28.8 73.6-54.4 25.6-64-22.4-140.8-105.6-179.2z" />
<glyph unicode="&#xe946;" glyph-name="audio-speaker" d="M752 896v-896h-3.2l-272 297.6-19.2 22.4h-185.6v256h182.4l19.2 19.2 275.2 300.8h3.2zM752 960h-3.2c-19.2 0-35.2-6.4-48-19.2l-275.2-300.8h-185.6c-19.2 0-32-12.8-32-32v-320c0-19.2 12.8-32 32-32h188.8l272-297.6c12.8-12.8 28.8-22.4 48-22.4h3.2c35.2 0 64 28.8 64 64v896c0 35.2-28.8 64-64 64v0z" />
<glyph unicode="&#xe947;" glyph-name="audio-speaker-levels" d="M454.4 912h-3.2c-16 0-32-6.4-41.6-19.2l-249.6-272h-128c-19.2 0-32-12.8-32-28.8v-291.2c0-16 12.8-28.8 28.8-28.8h131.2l246.4-268.8c9.6-12.8 25.6-19.2 41.6-19.2h3.2c32 0 57.6 25.6 57.6 57.6v812.8c3.2 32-22.4 57.6-54.4 57.6zM448 54.4l-240 259.2-19.2 19.2h-124.8v224h121.6l19.2 19.2 243.2 265.6v-787.2zM640 236.8h384v-60.8h-384v60.8zM864 588.8v160h-64v-160h-160v-64h160v-160h64v160h160v64z" />
<glyph unicode="&#xe948;" glyph-name="audio-speaker-mute" d="M960 451.2c0-156.8-86.4-291.2-214.4-361.6l22.4-60.8c150.4 80 256 240 256 422.4 0 80-19.2 153.6-51.2 217.6l-54.4-38.4c25.6-54.4 41.6-115.2 41.6-179.2zM768 873.6l-22.4-60.8c16-9.6 32-19.2 48-32l54.4 38.4c-22.4 19.2-48 38.4-80 54.4zM777.6 451.2c0-80-38.4-147.2-92.8-185.6l22.4-60.8c80 48 134.4 140.8 134.4 246.4 0 38.4-6.4 76.8-22.4 112l-54.4-38.4c6.4-25.6 12.8-48 12.8-73.6zM64 320v256h176l19.2 19.2 278.4 297.6h3.2v-291.2l64 44.8v246.4c0 35.2-28.8 64-64 64h-3.2c-19.2 0-35.2-6.4-48-19.2l-278.4-297.6h-179.2c-16 0-32-12.8-32-32v-320c0-16 12.8-32 32-32h16l92.8 64h-76.8zM540.8 3.2h-3.2l-204.8 220.8-54.4-38.4 208-227.2c12.8-12.8 28.8-22.4 48-22.4h3.2c35.2 0 64 28.8 64 64v412.8l-64-44.8 3.2-364.8zM38.4 89.6l-35.2 54.4 969.6 681.6 38.4-54.4z" />
<glyph unicode="&#xe949;" glyph-name="audio-speaker-off" d="M1024 265.6l-169.6 169.6 169.6 169.6-44.8 44.8-172.8-169.6-169.6 169.6-44.8-44.8 169.6-169.6-169.6-169.6 44.8-44.8 169.6 169.6 172.8-169.6zM432 851.2v0c-16 0-32-6.4-41.6-16l-220.8-240h-144c-12.8 0-25.6-12.8-25.6-25.6v-236.8c0-12.8 12.8-25.6 25.6-25.6h137.6l224-246.4c9.6-9.6 22.4-16 38.4-16h3.2c28.8 0 51.2 22.4 51.2 51.2v707.2c0 25.6-22.4 48-48 48zM416 124.8l-204.8 224-19.2 22.4h-128v160h131.2l19.2 19.2 201.6 220.8v-646.4z" />
<glyph unicode="&#xe94a;" glyph-name="audio-speaker-on" d="M544 960h-3.2c-19.2 0-35.2-6.4-48-19.2l-275.2-300.8h-185.6c-19.2 0-32-12.8-32-32v-320c0-19.2 12.8-32 32-32h188.8l272-297.6c12.8-12.8 28.8-22.4 48-22.4h3.2c35.2 0 64 28.8 64 64v896c0 35.2-28.8 64-64 64zM224 320v0h-160v256h160v-256zM544 0h-3.2l-252.8 278.4v345.6l252.8 272h3.2v-896zM768 873.6l-22.4-60.8c128-70.4 214.4-208 214.4-364.8s-86.4-291.2-214.4-364.8l22.4-60.8c153.6 80 256 240 256 425.6s-102.4 345.6-256 425.6zM838.4 451.2c0 105.6-54.4 198.4-134.4 246.4l-22.4-60.8c54.4-38.4 92.8-105.6 92.8-185.6s-38.4-147.2-96-185.6l22.4-60.8c83.2 44.8 137.6 137.6 137.6 246.4z" />
<glyph unicode="&#xe94b;" glyph-name="barcode" d="M0 960h96v-800h-96v800zM192 960h96v-800h-96v800zM352 960h128v-800h-128v800zM544 960h64v-800h-64v800zM672 960h192v-800h-192v800zM736 96h128v-160h-128v160zM544 96h128v-160h-128v160zM384 96h96v-160h-96v160zM224 96h64v-160h-64v160zM928 960h96v-800h-96v800zM960 96h64v-160h-64v160zM0 96h160v-160h-160v160z" />
<glyph unicode="&#xe94c;" glyph-name="battery-charge" d="M758.4 864h-118.4v64c0 19.2-12.8 32-32 32h-192c-19.2 0-32-12.8-32-32v-64h-118.4c-22.4 0-41.6-19.2-41.6-41.6v-844.8c0-22.4 19.2-41.6 41.6-41.6h492.8c22.4 0 41.6 19.2 41.6 41.6v844.8c0 22.4-19.2 41.6-41.6 41.6zM736 425.6v-425.6h-448v800h448v-374.4zM614.4 659.2c3.2 6.4-6.4 12.8-9.6 6.4l-310.4-313.6h182.4l-121.6-214.4c-3.2-6.4 3.2-12.8 9.6-9.6l371.2 297.6h-211.2l89.6 233.6z" />
<glyph unicode="&#xe94d;" glyph-name="battery-charge-plug" d="M473.6 64v480h-320v-480h320zM217.6 480h192v-352h-192v352zM537.6 147.2v-147.2h-448v800h448v-323.2c3.2 0 9.6 0 12.8 0h32v96c0 16 6.4 32 19.2 44.8v214.4c0 12.8-19.2 32-41.6 32h-118.4v64c0 19.2-12.8 32-32 32h-192c-19.2 0-32-12.8-32-32v-64h-118.4c-22.4 0-41.6-19.2-41.6-41.6v-844.8c0-22.4 19.2-41.6 41.6-41.6h492.8c22.4 0 41.6 19.2 41.6 51.2v76.8c-28.8 19.2-51.2 51.2-64 83.2zM902.4 416v160h-64v-160h-128v160h-64v-160h-96v-96h38.4v-102.4c0-73.6 57.6-131.2 131.2-131.2h9.6v-150.4h92.8v150.4h9.6c73.6 0 131.2 57.6 131.2 131.2v102.4h38.4v96h-99.2z" />
<glyph unicode="&#xe94e;" glyph-name="battery-horiz-charge" d="M160 416h192v-352h-192v352zM467.2 256l204.8-188.8c6.4-3.2 12.8 0 9.6 6.4l-44.8 150.4 92.8 35.2-102.4 160h-211.2l147.2-128-96-35.2zM998.4 377.6h-70.4v124.8c0 22.4-19.2 41.6-41.6 41.6h-844.8c-22.4 0-41.6-19.2-41.6-41.6v-524.8c0-22.4 19.2-41.6 41.6-41.6h844.8c22.4 0 41.6 19.2 41.6 41.6v124.8h70.4c12.8 0 25.6 12.8 25.6 25.6v224c0 12.8-12.8 25.6-25.6 25.6zM864 0h-800v480h800v-480z" />
<glyph unicode="&#xe94f;" glyph-name="battery-horiz-full" d="M982.4 736h-844.8c-22.4 0-41.6-19.2-41.6-44.8v-83.2h-54.4c-22.4 0-41.6-19.2-41.6-44.8v-230.4c0-25.6 19.2-44.8 41.6-44.8h54.4v-83.2c0-25.6 19.2-44.8 41.6-44.8h841.6c22.4 0 41.6 19.2 41.6 44.8v486.4c3.2 25.6-16 44.8-38.4 44.8zM960 224h-800v448h800v-448zM896 608h-672v-320h672v320zM832 352h-544v192h544v-192z" />
<glyph unicode="&#xe950;" glyph-name="battery-horiz-full-alt" d="M982.4 736h-844.8c-22.4 0-41.6-19.2-41.6-44.8v-83.2h-54.4c-22.4 0-41.6-19.2-41.6-44.8v-230.4c0-25.6 19.2-44.8 41.6-44.8h54.4v-83.2c0-25.6 19.2-44.8 41.6-44.8h841.6c22.4 0 41.6 19.2 41.6 44.8v486.4c3.2 25.6-16 44.8-38.4 44.8zM960 224h-800v448h800v-448zM896 608h-672v-320h672v320z" />
<glyph unicode="&#xe951;" glyph-name="battery-horiz-med" d="M896 608h-544v-320h544v320zM832 352h-416v192h416v-192zM982.4 736h-844.8c-22.4 0-41.6-19.2-41.6-44.8v-83.2h-54.4c-22.4 0-41.6-19.2-41.6-44.8v-230.4c0-25.6 19.2-44.8 41.6-44.8h54.4v-83.2c0-25.6 19.2-44.8 41.6-44.8h841.6c22.4 0 41.6 19.2 41.6 44.8v486.4c3.2 25.6-16 44.8-38.4 44.8zM960 224h-800v448h800v-448z" />
<glyph unicode="&#xe952;" glyph-name="battery-horiz-med-alt" d="M982.4 736h-844.8c-22.4 0-41.6-19.2-41.6-44.8v-83.2h-54.4c-22.4 0-41.6-19.2-41.6-44.8v-230.4c0-25.6 19.2-44.8 41.6-44.8h54.4v-83.2c0-25.6 19.2-44.8 41.6-44.8h841.6c22.4 0 41.6 19.2 41.6 44.8v486.4c3.2 25.6-16 44.8-38.4 44.8zM960 224h-800v448h800v-448zM896 608h-352l-160-320h512v320zM832 352h-345.6l96 192h249.6v-192z" />
<glyph unicode="&#xe953;" glyph-name="battery-level-med" d="M672 544h-320v-480h320v480zM608 128h-192v352h192v-352zM758.4 864h-118.4v64c0 19.2-12.8 32-32 32h-192c-19.2 0-32-12.8-32-32v-64h-118.4c-22.4 0-41.6-19.2-41.6-41.6v-844.8c0-22.4 19.2-41.6 41.6-41.6h492.8c22.4 0 41.6 19.2 41.6 41.6v844.8c0 22.4-19.2 41.6-41.6 41.6zM736 0h-448v800h448v-800z" />
<glyph unicode="&#xe954;" glyph-name="bluetooth" d="M480-60.8v419.2l-179.2-166.4-44.8 44.8 224 208v6.4l-224 208 44.8 44.8 179.2-166.4v419.2l310.4-310.4-214.4-198.4 214.4-198.4-310.4-310.4zM544 390.4v-297.6l153.6 153.6-153.6 144zM544 803.2v-297.6l153.6 144-153.6 153.6z" />
<glyph unicode="&#xe955;" glyph-name="bluetooth-alt" d="M528 896c140.8 0 256-115.2 256-256v-384c0-140.8-115.2-256-256-256h-32c-140.8 0-256 115.2-256 256v384c0 140.8 115.2 256 256 256h32zM528 960h-32c-176 0-320-144-320-320v-384c0-176 144-320 320-320h32c176 0 320 144 320 320v384c0 176-144 320-320 320v0zM470.4 67.2v294.4l-108.8-102.4-44.8 48 150.4 140.8-150.4 140.8 44.8 48 108.8-102.4v294.4l240-240-150.4-140.8 150.4-137.6-240-243.2zM534.4 387.2v-163.2l86.4 86.4-86.4 76.8zM534.4 675.2v-163.2l86.4 80-86.4 83.2z" />
<glyph unicode="&#xe956;" glyph-name="book-front" d="M896 864h-64v64c0 16-12.8 32-32 32h-608c-54.4 0-96-41.6-96-96v-832c0-54.4 41.6-96 96-96h736v896c0 19.2-12.8 32-32 32zM768 896v-736h-480v736h480zM160 134.4v729.6c0 19.2 12.8 32 32 32h32v-736c-25.6 0-48-9.6-64-25.6zM864 0h-640c-19.2 0-32 12.8-32 32v32c0 19.2 12.8 32 32 32h640v-96zM864 160h-32v640h32v-640z" />
<glyph unicode="&#xe957;" glyph-name="book-side-single" d="M640 960h-256c-19.2 0-32-12.8-32-32v-960c0-19.2 12.8-32 32-32h256c19.2 0 32 12.8 32 32v960c0 19.2-12.8 32-32 32zM608 896v-64h-192v64h192zM416 704v64h192v-64h-192zM608 640v-512h-192v512h192zM416 0v64h192v-64h-192zM512 160l48 48-48 48-48-48z" />
<glyph unicode="&#xe958;" glyph-name="bookmarked" d="M720 896v-851.2l-169.6 134.4-38.4 32-38.4-32-169.6-134.4v851.2h416zM720 960h-416c-35.2 0-64-28.8-64-64v-944c0-9.6 9.6-16 22.4-16 6.4 0 9.6 0 16 3.2l233.6 188.8 236.8-188.8c3.2-3.2 9.6-3.2 12.8-3.2 12.8 0 22.4 6.4 22.4 16v944c0 35.2-28.8 64-64 64v0z" />
<glyph unicode="&#xe959;" glyph-name="bookmarked-alt" d="M886.4 832c0 67.2-51.2 121.6-118.4 128v0h-502.4c-70.4 0-128-57.6-128-128v-876.8c0-12.8 9.6-19.2 22.4-19.2 6.4 0 9.6 0 16 3.2l240 188.8 240-188.8c3.2-3.2 9.6-3.2 12.8-3.2 12.8 0 22.4 6.4 22.4 16v502.4h192v377.6zM630.4 41.6l-214.4 169.6-214.4-166.4v787.2c0 35.2 28.8 64 64 64h380.8c-9.6-19.2-19.2-41.6-19.2-64l3.2-790.4zM822.4 518.4h-128v313.6c0 35.2 28.8 64 64 64s64-28.8 64-64v-313.6z" />
<glyph unicode="&#xe95a;" glyph-name="books-side-duo" d="M448 960h-256c-19.2 0-32-12.8-32-32v-960c0-19.2 12.8-32 32-32h256c19.2 0 32 12.8 32 32v960c0 19.2-12.8 32-32 32zM416 896v-64h-192v64h192zM224 704v64h192v-64h-192zM416 640v-512h-192v512h192zM224 0v64h192v-64h-192zM320 160l48 48-48 48-48-48zM832 960h-256c-19.2 0-32-12.8-32-32v-960c0-19.2 12.8-32 32-32h256c19.2 0 32 12.8 32 32v960c0 19.2-12.8 32-32 32zM800 896v-64h-192v64h192zM608 704v64h192v-64h-192zM800 640v-512h-192v512h192zM608 0v64h192v-64h-192zM704 160l48 48-48 48-48-48z" />
<glyph unicode="&#xe95b;" glyph-name="books-side-group" d="M0-64h288v1024h-288v-1024zM64 0v64h160v-64h-160zM64 128v640h160v-640h-160zM224 896v-64h-160v64h160zM96 640h96v-64h-96v64zM96 512h96v-64h-96v64zM192 208c0-26.51-21.49-48-48-48s-48 21.49-48 48c0 26.51 21.49 48 48 48s48-21.49 48-48zM892.8 960l-252.8-32v32h-288v-1024h288v745.6l99.2-745.6 284.8 35.2-131.2 988.8zM576 0h-160v64h160v-64zM576 128h-160v640h160v-640zM576 832h-160v64h160v-64zM678.4 867.2l160 19.2 6.4-54.4-160-19.2-6.4 54.4zM694.4 748.8l160 19.2 83.2-620.8-160-19.2-83.2 620.8zM784 70.4l160 19.2 6.4-60.8-160-19.2-6.4 60.8zM448 640h96v-64h-96v64zM448 512h96v-64h-96v64zM544 208c0-26.51-21.49-48-48-48s-48 21.49-48 48c0 26.51 21.49 48 48 48s48-21.49 48-48zM745.286 624.254l95.251 12 8-63.501-95.251-12-8 63.501zM761.302 499.413l95.251 12 8-63.501-95.251-12-8 63.501zM896 220.8c-3.2 25.6-25.6 41.6-48 41.6-3.2 0-3.2 0-6.4 0-25.6-3.2-44.8-28.8-41.6-54.4s25.6-41.6 48-41.6c3.2 0 3.2 0 6.4 0 25.6 3.2 44.8 28.8 41.6 54.4z" />
<glyph unicode="&#xe95c;" glyph-name="box-alert" d="M822.4 352c0 0 0 3.2 0 0-9.6 16-25.6 25.6-38.4 25.6-3.2 0-3.2 0-6.4 0v0 0 0 0c-3.2 0-3.2 0-6.4 0-16-3.2-28.8-9.6-38.4-22.4 0 0 0-3.2-3.2-3.2l-172.8-326.4c-19.2-28.8-12.8-51.2-6.4-64 9.6-19.2 28.8-28.8 51.2-28.8h364.8c22.4 0 41.6 9.6 51.2 28.8 6.4 9.6 12.8 32-6.4 64l-188.8 326.4zM784 0c-19.2 0-32 12.8-32 32s12.8 32 32 32 32-12.8 32-32c0-19.2-12.8-32-32-32zM816 96h-64v160h64v-160zM1014.4 809.6c-3.2 3.2-6.4 6.4-12.8 6.4l-22.4 6.4-457.6 137.6c-3.2 0-6.4 0-9.6 0s-6.4 0-9.6 0l-470.4-140.8-6.4-3.2c-6.4 0-9.6-3.2-12.8-6.4-9.6-6.4-12.8-16-12.8-22.4v-588.8c0-25.6 16-51.2 41.6-60.8l438.4-160c0 12.8 0 25.6 3.2 38.4 3.2 9.6 3.2 16 9.6 25.6 3.2 6.4 6.4 12.8 9.6 19.2l41.6 80v454.4l204.8 64c0-44.8 0-115.2 0-169.6l86.4 25.6v169.6l124.8 41.6v-480l51.2-86.4c9.6 9.6 12.8 25.6 12.8 38.4v585.6c0 9.6-3.2 19.2-9.6 25.6zM64 195.2v531.2l22.4-6.4 96-28.8v-172.8l86.4-25.6c0 54.4 0 124.8 0 169.6l208-64v-550.4l-412.8 147.2zM512 652.8l-182.4 57.6 22.4 9.6 96 35.2-108.8 32-112-44.8-112 35.2 400 118.4 396.8-118.4-115.2-35.2-118.4 41.6-108.8-32 96-35.2 25.6-9.6-179.2-54.4z" />
<glyph unicode="&#xe95d;" glyph-name="box-open" d="M1024 713.6l-313.6 220.8-108.8-134.4h-3.2l-137.6 156.8-444.8-153.6 144-150.4-160-102.4 160-144v-217.6l281.6-252.8 454.4 188.8v227.2l124.8 51.2-108.8 169.6 112 140.8zM723.2 848l208-147.2-38.4-48-201.6 153.6 32 41.6zM633.6 768l252.8-192-252.8-96v288zM131.2 774.4l307.2 105.6 51.2-57.6-304-105.6-54.4 57.6zM105.6 540.8l60.8 38.4 198.4-163.2-70.4-44.8-188.8 169.6zM416 44.8l-192 169.6v131.2l64-57.6 128 80v-323.2zM179.2 649.6l387.2 134.4v-323.2l-102.4-44.8-284.8 233.6zM832 166.4l-352-147.2v352l105.6-150.4 246.4 102.4v-156.8zM924.8 435.2l-316.8-134.4-57.6 83.2 326.4 124.8 48-73.6z" />
<glyph unicode="&#xe95e;" glyph-name="box-pkg" d="M1001.6 784l-480 144c-3.2 0-6.4 0-9.6 0s-6.4 0-9.6 0l-480-144c-12.8-3.2-22.4-16-22.4-28.8v-592c0-25.6 16-51.2 41.6-60.8l448-163.2c6.4-3.2 16-3.2 22.4-3.2s16 0 22.4 3.2l448 163.2c25.6 9.6 41.6 32 41.6 60.8v588.8c0 16-9.6 28.8-22.4 32zM515.2 864l396.8-118.4-115.2-35.2-118.4 41.6-108.8-32 124.8-44.8-182.4-54.4-182.4 57.6 121.6 44.8-108.8 32-115.2-44.8-112 35.2 400 118.4zM64 691.2l121.6-38.4v-172.8l86.4-25.6c0 54.4 0 124.8 0 169.6l208-64v-550.4l-416 153.6v528zM960 163.2l-416-150.4v550.4l204.8 64c0-44.8 0-115.2 0-169.6l86.4 25.6v169.6l124.8 38.4v-528z" />
<glyph unicode="&#xe95f;" glyph-name="box-search" d="M1001.6 816l-480 144c-3.2 0-6.4 0-9.6 0s-6.4 0-9.6 0l-480-144c-12.8-3.2-22.4-16-22.4-28.8v-592c0-25.6 16-51.2 41.6-60.8l448-163.2c6.4-3.2 16-3.2 22.4-3.2s16 0 22.4 3.2l6.4 3.2c-9.6 6.4-22.4 16-32 22.4-6.4 6.4-12.8 9.6-19.2 16-3.2 3.2-3.2 6.4-6.4 6.4-9.6 9.6-16 19.2-25.6 32l-393.6 144v528l121.6-38.4v-172.8l86.4-25.6c0 54.4 0 124.8 0 169.6l208-64v-195.2c3.2 3.2 6.4 6.4 9.6 9.6 16 16 35.2 32 54.4 41.6v144l204.8 64c0-44.8 0-115.2 0-169.6l86.4 25.6v172.8l124.8 38.4v-464c3.2-16 3.2-32 3.2-48 0-28.8-6.4-60.8-12.8-86.4l32 12.8c25.6 9.6 41.6 32 41.6 60.8v585.6c0 16-9.6 28.8-22.4 32zM793.6 739.2l-118.4 41.6-108.8-32 124.8-44.8-179.2-51.2-182.4 57.6 121.6 44.8-108.8 32-115.2-44.8-112 35.2 400 118.4 396.8-118.4-118.4-38.4zM854.4 76.8c67.2 83.2 64 208-16 288-41.6 41.6-96 64-150.4 64s-108.8-22.4-150.4-64c-83.2-83.2-83.2-220.8 0-304 41.6-41.6 96-64 150.4-64 41.6 0 83.2 12.8 118.4 35.2l89.6-86.4c6.4-6.4 12.8-9.6 22.4-9.6s16 3.2 22.4 9.6c12.8 12.8 12.8 32 0 44.8l-86.4 86.4zM793.6 105.6c-28.8-28.8-67.2-44.8-105.6-44.8-41.6 0-76.8 16-105.6 44.8s-44.8 67.2-44.8 105.6c0 41.6 16 76.8 44.8 105.6s67.2 44.8 105.6 44.8c41.6 0 76.8-16 105.6-44.8s44.8-67.2 44.8-105.6c0-41.6-16-76.8-44.8-105.6z" />
<glyph unicode="&#xe960;" glyph-name="breakout-port-3" d="M800 672v-416h-256v416h-64v-416h-256v416h-64v-480h320v-256h64v256h320v480z" />
<glyph unicode="&#xe961;" glyph-name="breakout-port-4" d="M896 768v-416h-192v416h-64v-416h-224v416h-64v-416h-224v416h-64v-480h416v-352h64v352h416v480z" />
<glyph unicode="&#xe962;" glyph-name="brightness" d="M172.8 76.8c-9.6 0-16 3.2-22.4 9.6-12.8 12.8-12.8 32 0 44.8l128 128c12.8 12.8 32 12.8 44.8 0s12.8-32 0-44.8l-128-128c-6.4-6.4-12.8-9.6-22.4-9.6zM723.2 627.2c-9.6 0-16 3.2-22.4 9.6-12.8 12.8-12.8 32 0 44.8l128 128c12.8 12.8 32 12.8 44.8 0s12.8-32 0-44.8l-128-128c-6.4-6.4-16-9.6-22.4-9.6zM214.4 416h-179.2c-19.2 0-32 12.8-32 32s12.8 32 32 32h179.2c19.2 0 32-12.8 32-32s-12.8-32-32-32zM988.8 416h-179.2c-19.2 0-32 12.8-32 32s12.8 32 32 32h179.2c19.2 0 32-12.8 32-32s-12.8-32-32-32zM300.8 627.2c-9.6 0-16 3.2-22.4 9.6l-128 128c-12.8 12.8-12.8 32 0 44.8s32 12.8 44.8 0l128-128c12.8-12.8 12.8-32 0-44.8-6.4-6.4-12.8-9.6-22.4-9.6zM851.2 76.8c-9.6 0-16 3.2-22.4 9.6l-128 128c-12.8 12.8-12.8 32 0 44.8s32 12.8 44.8 0l128-128c12.8-12.8 12.8-32 0-44.8-6.4-6.4-16-9.6-22.4-9.6zM512 713.6c-19.2 0-32 12.8-32 32v179.2c0 19.2 12.8 32 32 32s32-12.8 32-32v-179.2c0-19.2-12.8-32-32-32zM512-60.8c-19.2 0-32 12.8-32 32v179.2c0 19.2 12.8 32 32 32s32-12.8 32-32v-179.2c0-19.2-12.8-32-32-32zM512 592c80 0 144-64 144-144s-64-144-144-144-144 64-144 144 64 144 144 144zM512 656c-115.2 0-208-92.8-208-208s92.8-208 208-208c115.2 0 208 92.8 208 208s-92.8 208-208 208v0z" />
<glyph unicode="&#xe963;" glyph-name="brightness-contrast" d="M288 268.8l-134.4-134.4c-12.8-12.8-12.8-32 0-44.8 6.4-6.4 16-9.6 22.4-9.6s16 3.2 22.4 9.6l134.4 134.4c-16 12.8-32 28.8-44.8 44.8zM736 627.2l134.4 134.4c12.8 12.8 12.8 32 0 44.8s-32 12.8-44.8 0l-134.4-134.4c16-12.8 32-28.8 44.8-44.8zM224 448c0 9.6 0 22.4 3.2 32h-192c-19.2 0-32-12.8-32-32s12.8-32 32-32h192c-3.2 9.6-3.2 22.4-3.2 32zM988.8 480h-192c0-9.6 3.2-22.4 3.2-32s0-22.4-3.2-32h192c19.2 0 32 12.8 32 32s-16 32-32 32zM736 268.8c-12.8-16-28.8-32-44.8-44.8l134.4-134.4c6.4-6.4 16-9.6 22.4-9.6s16 3.2 22.4 9.6c12.8 12.8 12.8 32 0 44.8l-134.4 134.4zM288 627.2c12.8 16 28.8 32 44.8 44.8l-134.4 134.4c-12.8 12.8-32 12.8-44.8 0s-12.8-32 0-44.8l134.4-134.4zM544 732.8v192c0 19.2-12.8 32-32 32s-32-12.8-32-32v-192c9.6 3.2 22.4 3.2 32 3.2s22.4 0 32-3.2zM480 163.2v-192c0-19.2 12.8-32 32-32s32 12.8 32 32v192c-9.6 0-22.4-3.2-32-3.2s-22.4 0-32 3.2zM512 403.2v0 0zM512 492.8v0 0zM512 672c-124.8 0-224-99.2-224-224s99.2-224 224-224c124.8 0 224 99.2 224 224s-99.2 224-224 224zM512 288c0 0 0 0 0 0v320c0 0 0 0 0 0 89.6 0 160-70.4 160-160s-70.4-160-160-160z" />
<glyph unicode="&#xe964;" glyph-name="brightness-contrast-alt" d="M800 505.6c-22.4 115.2-115.2 208-230.4 230.4-19.2 3.2-38.4 6.4-57.6 6.4v0 0c-44.8 0-86.4-9.6-124.8-28.8-9.6-3.2-19.2-9.6-28.8-16-35.2-22.4-67.2-51.2-89.6-86.4-6.4-9.6-12.8-19.2-16-25.6-9.6-19.2-16-38.4-22.4-60.8-9.6-41.6-12.8-86.4-3.2-134.4 22.4-115.2 115.2-208 230.4-230.4 19.2-3.2 38.4-6.4 57.6-6.4v0 0c176 3.2 320 166.4 284.8 352zM688 300.8c-44.8-51.2-108.8-83.2-176-83.2v457.6c16 0 28.8 0 44.8-3.2 89.6-16 163.2-89.6 179.2-179.2 12.8-70.4-3.2-137.6-48-192zM512 803.2c44.8 0 80 35.2 80 80s-35.2 76.8-80 76.8-80-35.2-80-80 35.2-76.8 80-76.8zM592 16c0-44.183-35.817-80-80-80s-80 35.817-80 80c0 44.183 35.817 80 80 80s80-35.817 80-80zM262.4 697.6c32 32 32 80 0 112s-80 32-112 0c-32-32-32-80 0-112 28.8-28.8 80-28.8 112 0zM761.6 198.4c-32-32-32-80 0-112s80-32 112 0c32 32 32 80 0 112-28.8 28.8-80 28.8-112 0zM156.8 448c0 44.8-35.2 80-80 80s-76.8-35.2-76.8-80c0-44.8 35.2-80 80-80s76.8 35.2 76.8 80zM944 528c-44.8 0-80-35.2-80-80s35.2-80 80-80 80 35.2 80 80c0 44.8-35.2 80-80 80zM150.4 198.4c-32-32-32-80 0-112s80-32 112 0c32 32 32 80 0 112-32 28.8-83.2 28.8-112 0zM873.6 697.6c32 32 32 80 0 112s-80 32-112 0c-32-32-32-80 0-112 32-28.8 83.2-28.8 112 0z" />
<glyph unicode="&#xe965;" glyph-name="bug" d="M953.6 188.8c-22.4 12.8-44.8 19.2-73.6 19.2 16 44.8 28.8 96 28.8 147.2 0 0 3.2 0 3.2 0 32-3.2 51.2-25.6 54.4-25.6 12.8-12.8 32-16 44.8-3.2s16 32 3.2 44.8c-3.2 3.2-38.4 44.8-96 48-3.2 0-6.4 0-9.6 0-3.2 44.8-12.8 89.6-28.8 131.2 9.6 9.6 22.4 16 35.2 19.2 32 6.4 57.6-9.6 57.6-9.6 16-9.6 35.2-6.4 44.8 9.6s6.4 35.2-9.6 44.8c-6.4 3.2-51.2 32-105.6 19.2-16-3.2-32-9.6-48-22.4-3.2 6.4-6.4 12.8-12.8 22.4h-76.8c51.2-70.4 83.2-156.8 83.2-252.8 0-195.2-134.4-358.4-304-374.4v617.6h-64v-620.8c-169.6 19.2-304 179.2-304 374.4 0 96 32 185.6 83.2 252.8h-76.8c-3.2-6.4-6.4-12.8-9.6-19.2-16 9.6-32 16-51.2 19.2-57.6 12.8-102.4-16-105.6-19.2-12.8-9.6-16-32-6.4-44.8s32-16 44.8-6.4c0 0 25.6 19.2 57.6 12.8 12.8-3.2 22.4-6.4 35.2-16-16-41.6-25.6-86.4-28.8-131.2-3.2 0-6.4 0-9.6 0-57.6-6.4-89.6-48-96-54.4-9.6-12.8-9.6-35.2 6.4-44.8 0-6.4 6.4-6.4 12.8-6.4 9.6 0 19.2 3.2 25.6 12.8 0 0 19.2 25.6 51.2 28.8 0 0 0 0 3.2 0 3.2-51.2 12.8-102.4 28.8-147.2-22.4-3.2-44.8-9.6-64-22.4-48-32-57.6-86.4-57.6-92.8-3.2-16 9.6-35.2 25.6-35.2 3.2 0 3.2 0 6.4 0 16 0 28.8 12.8 32 25.6 0 0 6.4 32 32 48 12.8 9.6 32 12.8 54.4 12.8 70.4-128 201.6-214.4 342.4-214.4 137.6 0 265.6 80 339.2 208 28.8 6.4 51.2 3.2 67.2-9.6 25.6-16 32-48 35.2-48 3.2-16 16-25.6 32-25.6 3.2 0 3.2 0 6.4 0 16 3.2 28.8 19.2 25.6 38.4-3.2 6.4-16 57.6-64 89.6zM281.6 678.4h460.8c0 51.2-22.4 99.2-51.2 140.8l67.2 108.8-54.4 32-60.8-96c-41.6 28.8-86.4 48-131.2 48s-89.6-19.2-131.2-48l-60.8 96-54.4-35.2 67.2-108.8c-32-38.4-51.2-86.4-51.2-137.6zM662.4 742.4h-300.8c28.8 60.8 96 105.6 150.4 105.6s121.6-44.8 150.4-105.6zM748.8 246.4c0-35.346-28.654-64-64-64s-64 28.654-64 64c0 35.346 28.654 64 64 64s64-28.654 64-64zM748.8 489.6c0-35.346-28.654-64-64-64s-64 28.654-64 64c0 35.346 28.654 64 64 64s64-28.654 64-64zM403.2 246.4c0-35.346-28.654-64-64-64s-64 28.654-64 64c0 35.346 28.654 64 64 64s64-28.654 64-64zM403.2 489.6c0-35.346-28.654-64-64-64s-64 28.654-64 64c0 35.346 28.654 64 64 64s64-28.654 64-64z" />
<glyph unicode="&#xe966;" glyph-name="bundle" d="M192 736h384v-64h-384v64zM672 896v-640h-576v640h576zM704 960h-640c-19.2 0-32-12.8-32-32v-704c0-19.2 12.8-32 32-32h640c19.2 0 32 12.8 32 32v704c0 19.2-12.8 32-32 32v0zM192 608h384v-64h-384v64zM192 480h384v-64h-384v64zM832 832h-32v-704h-640v-32c0-19.2 12.8-32 32-32h640c19.2 0 32 12.8 32 32v704c0 19.2-12.8 32-32 32zM960 704h-32v-704h-640v-32c0-19.2 12.8-32 32-32h640c19.2 0 32 12.8 32 32v704c0 19.2-12.8 32-32 32z" />
<glyph unicode="&#xe967;" glyph-name="bundle-add" d="M492.8 736h-332.8v-64h336c-3.2 16-6.4 35.2-6.4 54.4 3.2 3.2 3.2 6.4 3.2 9.6zM640 256h-576v640h480c16 25.6 38.4 44.8 60.8 64h-572.8c-19.2 0-32-12.8-32-32v-704c0-19.2 12.8-32 32-32h640c19.2 0 32 12.8 32 32v217.6c-22.4 6.4-44.8 16-64 28.8v-214.4zM160 608v-64h384v12.8c-9.6 16-19.2 32-28.8 51.2h-355.2zM160 480h384v-64h-384v64zM768 428.8v-300.8h-640v-32c0-19.2 12.8-32 32-32h640c19.2 0 32 12.8 32 32v336c-12.8-3.2-28.8-3.2-41.6-3.2-6.4 0-16 0-22.4 0zM896 0h-640v-32c0-19.2 12.8-32 32-32h640c19.2 0 32 12.8 32 32v512c-19.2-12.8-41.6-25.6-64-35.2v-444.8zM790.4 960c-128 0-233.6-105.6-233.6-233.6s105.6-233.6 233.6-233.6 233.6 102.4 233.6 233.6-105.6 233.6-233.6 233.6zM924.8 694.4h-102.4v-102.4h-64v102.4h-102.4v64h102.4v102.4h64v-102.4h102.4v-64z" />
<glyph unicode="&#xe968;" glyph-name="calculator" d="M332.8 73.6c0-9.6-6.4-16-16-16h-60.8c-9.6 0-16 6.4-16 16v60.8c0 9.6 6.4 16 16 16h60.8c9.6 0 16-6.4 16-16v-60.8zM332.8 224c0-9.6-6.4-16-16-16h-60.8c-9.6 0-16 6.4-16 16v60.8c0 9.6 6.4 16 16 16h60.8c9.6 0 16-6.4 16-16v-60.8zM332.8 374.4c0-9.6-6.4-16-16-16h-60.8c-9.6 0-16 6.4-16 16v60.8c3.2 6.4 9.6 12.8 16 12.8h60.8c9.6 0 16-6.4 16-16v-57.6zM332.8 521.6c0-9.6-6.4-16-16-16h-60.8c-9.6 0-16 6.4-16 16v60.8c0 9.6 6.4 16 16 16h60.8c9.6 0 16-6.4 16-16v-60.8zM483.2 73.6c0-9.6-6.4-16-16-16h-60.8c-9.6 0-16 6.4-16 16v60.8c0 9.6 6.4 16 16 16h60.8c9.6 0 16-6.4 16-16v-60.8zM483.2 224c0-9.6-6.4-16-16-16h-60.8c-9.6 0-16 6.4-16 16v60.8c0 9.6 6.4 16 16 16h60.8c9.6 0 16-6.4 16-16v-60.8zM483.2 374.4c0-9.6-6.4-16-16-16h-60.8c-9.6 0-16 6.4-16 16v60.8c0 9.6 6.4 16 16 16h60.8c9.6 0 16-6.4 16-16v-60.8zM483.2 521.6c0-9.6-6.4-16-16-16h-60.8c-9.6 0-16 6.4-16 16v60.8c0 9.6 6.4 16 16 16h60.8c9.6 0 16-6.4 16-16v-60.8zM630.4 73.6c0-9.6-6.4-16-16-16h-60.8c-9.6 0-16 6.4-16 16v60.8c0 9.6 6.4 16 16 16h60.8c9.6 0 16-6.4 16-16v-60.8zM630.4 224c0-9.6-6.4-16-16-16h-60.8c-9.6 0-16 6.4-16 16v60.8c0 9.6 6.4 16 16 16h60.8c9.6 0 16-6.4 16-16v-60.8zM630.4 374.4c0-9.6-6.4-16-16-16h-60.8c-9.6 0-16 6.4-16 16v60.8c0 9.6 6.4 16 16 16h60.8c9.6 0 16-6.4 16-16v-60.8zM630.4 521.6c0-9.6-6.4-16-16-16h-60.8c-9.6 0-16 6.4-16 16v60.8c0 9.6 6.4 16 16 16h60.8c9.6 0 16-6.4 16-16v-60.8zM780.8 73.6c0-9.6-6.4-16-16-16h-60.8c-9.6 0-16 6.4-16 16v60.8c0 9.6 6.4 16 16 16h64c9.6 0 16-6.4 16-16v-60.8zM780.8 224c0-9.6-6.4-16-16-16h-60.8c-9.6 0-16 6.4-16 16v60.8c0 9.6 6.4 16 16 16h64c9.6 0 16-6.4 16-16v-60.8zM780.8 374.4c0-9.6-6.4-16-16-16h-60.8c-9.6 0-16 6.4-16 16v60.8c0 9.6 6.4 16 16 16h64c9.6 0 16-6.4 16-16v-60.8zM780.8 521.6c0-9.6-6.4-16-16-16h-60.8c-9.6 0-16 6.4-16 16v60.8c0 9.6 6.4 16 16 16h64c9.6 0 16-6.4 16-16v-60.8zM780.8 704c0-9.6-6.4-16-16-16h-508.8c-6.4 0-12.8 6.4-12.8 16v118.4c0 9.6 6.4 16 12.8 16h512c9.6 0 16-6.4 16-16v-118.4zM832-64h-640c-38.4 0-73.6 32-73.6 73.6v876.8c3.2 41.6 35.2 73.6 73.6 73.6h640c41.6 0 73.6-32 73.6-73.6v-880c0-38.4-35.2-70.4-73.6-70.4zM192 896c-3.2 0-6.4-3.2-6.4-9.6v-880c0-3.2 3.2-6.4 6.4-6.4h640c3.2 0 9.6 3.2 9.6 9.6v876.8c0 6.4-6.4 9.6-9.6 9.6h-640z" />
<glyph unicode="&#xe969;" glyph-name="calculator-sm" d="M336 64h-96c-9.6 0-16 6.4-16 16v96c0 9.6 6.4 16 16 16h96c9.6 0 16-6.4 16-16v-96c0-9.6-6.4-16-16-16zM336 288h-96c-9.6 0-16 6.4-16 16v96c0 9.6 6.4 16 16 16h96c9.6 0 16-6.4 16-16v-96c0-9.6-6.4-16-16-16zM800 80c0-9.6-6.4-16-16-16h-320c-9.6 0-16 6.4-16 16v96c0 9.6 6.4 16 16 16h320c9.6 0 16-6.4 16-16v-96zM448 304v96c0 9.6 6.4 16 16 16h96c9.6 0 16-6.4 16-16v-99.2c0-6.4-6.4-12.8-12.8-12.8h-99.2c-9.6 0-16 6.4-16 16zM784 288h-99.2c-6.4 0-12.8 6.4-12.8 12.8v99.2c0 9.6 6.4 16 16 16h96c9.6 0 16-6.4 16-16v-96c0-9.6-6.4-16-16-16zM784 544h-544c-9.6 0-16 6.4-16 16v128c0 9.6 6.4 16 16 16h544c9.6 0 16-6.4 16-16v-128c0-9.6-6.4-16-16-16zM851.2-64h-678.4c-41.6 0-76.8 32-76.8 73.6v780.8c0 38.4 35.2 73.6 76.8 73.6h678.4c41.6 0 76.8-32 76.8-73.6v-780.8c0-38.4-35.2-73.6-76.8-73.6zM172.8 800c-6.4 0-12.8-6.4-12.8-9.6v-780.8c0-3.2 6.4-9.6 12.8-9.6h678.4c6.4 0 12.8 6.4 12.8 9.6v780.8c0 3.2-6.4 9.6-12.8 9.6h-678.4z" />
<glyph unicode="&#xe96a;" glyph-name="calendar-1-day" d="M960 960h-896c-35.2 0-64-28.8-64-64v-896c0-35.2 28.8-64 64-64h896c35.2 0 64 28.8 64 64v896c0 35.2-28.8 64-64 64zM960 896v-160h-896v160h896zM64 0v672h896v-672h-896zM396.8 473.6v-67.2l96 32v-313.6h80v409.6h-6.4z" />
<glyph unicode="&#xe96b;" glyph-name="calendar-14-day" d="M960 960h-896c-35.2 0-64-28.8-64-64v-896c0-35.2 28.8-64 64-64h896c35.2 0 64 28.8 64 64v896c0 35.2-28.8 64-64 64zM960 0h-896v672h896v-672zM960 736h-896v160h896v-160zM345.6 124.8h80v409.6h-6.4l-169.6-60.8v-64l96 28.8zM649.6 214.4v-89.6h80v89.6h48v64h-48v256h-83.2l-166.4-268.8 3.2-51.2h166.4zM643.2 416l6.4 9.6v-144h-89.6l83.2 134.4z" />
<glyph unicode="&#xe96c;" glyph-name="calendar-2-day" d="M960 960h-896c-35.2 0-64-28.8-64-64v-896c0-35.2 28.8-64 64-64h896c35.2 0 64 28.8 64 64v896c0 35.2-28.8 64-64 64zM960 896v-160h-896v160h896zM64 0v672h896v-672h-896zM572.8 291.2c25.6 28.8 44.8 51.2 54.4 73.6s16 41.6 16 60.8c0 38.4-12.8 64-35.2 86.4s-54.4 32-99.2 32c-28.8 0-51.2-6.4-73.6-16s-38.4-28.8-51.2-48-19.2-44.8-19.2-67.2h83.2c0 19.2 6.4 38.4 16 51.2s25.6 19.2 44.8 19.2c16 0 28.8-6.4 38.4-16s12.8-25.6 12.8-41.6c0-12.8-3.2-28.8-12.8-41.6s-22.4-32-41.6-51.2l-131.2-140.8v-64h281.6v64h-176l92.8 99.2z" />
<glyph unicode="&#xe96d;" glyph-name="calendar-28-day" d="M960 960h-896c-35.2 0-64-28.8-64-64v-896c0-35.2 28.8-64 64-64h896c35.2 0 64 28.8 64 64v896c0 35.2-28.8 64-64 64zM960 0h-896v672h896v-672zM960 736h-896v160h896v-160zM313.6 454.4c9.6 12.8 25.6 19.2 44.8 19.2 16 0 28.8-6.4 38.4-16s12.8-25.6 12.8-41.6c0-12.8-3.2-28.8-12.8-41.6s-22.4-32-41.6-51.2l-131.2-144v-54.4h281.6v64h-176l92.8 99.2c25.6 28.8 44.8 51.2 54.4 73.6s16 41.6 16 60.8c0 38.4-12.8 64-35.2 86.4s-57.6 28.8-99.2 28.8c-28.8 0-51.2-6.4-73.6-16s-38.4-28.8-51.2-48-19.2-44.8-19.2-67.2h80c3.2 16 9.6 35.2 19.2 48zM547.2 294.4c-12.8-16-16-35.2-16-60.8 0-35.2 12.8-64 38.4-86.4s57.6-32 102.4-32 76.8 9.6 102.4 32 38.4 51.2 38.4 86.4c0 22.4-6.4 41.6-16 60.8s-28.8 28.8-48 38.4c16 9.6 32 22.4 41.6 38.4s16 32 16 54.4c0 35.2-12.8 64-35.2 83.2s-54.4 32-96 32c-38.4 0-70.4-9.6-96-32s-35.2-48-35.2-83.2c0-19.2 6.4-38.4 16-54.4s22.4-28.8 41.6-38.4c-25.6-9.6-41.6-22.4-54.4-38.4zM633.6 457.6c9.6 9.6 19.2 12.8 35.2 12.8s28.8-6.4 35.2-16 12.8-22.4 12.8-38.4c0-16-3.2-28.8-12.8-38.4s-19.2-16-35.2-16-28.8 6.4-35.2 16-12.8 22.4-12.8 38.4c0 19.2 3.2 32 12.8 41.6zM627.2 284.8c9.6 9.6 25.6 16 41.6 16s32-6.4 41.6-16 16-25.6 16-41.6c0-19.2-6.4-32-16-41.6s-22.4-16-41.6-16c-19.2 0-32 6.4-41.6 16s-16 25.6-16 41.6c0 16 6.4 28.8 16 41.6z" />
<glyph unicode="&#xe96e;" glyph-name="calendar-3-day" d="M960 960h-896c-35.2 0-64-28.8-64-64v-896c0-35.2 28.8-64 64-64h896c35.2 0 64 28.8 64 64v896c0 35.2-28.8 64-64 64zM960 896v-160h-896v160h896zM64 0v672h896v-672h-896zM585.6 345.6c19.2 9.6 32 19.2 44.8 35.2s16 32 16 51.2c0 35.2-12.8 64-38.4 86.4s-57.6 32-102.4 32c-25.6 0-48-3.2-67.2-12.8s-38.4-22.4-48-38.4-16-35.2-16-57.6h80c0 12.8 6.4 25.6 16 32s22.4 12.8 38.4 12.8c16 0 32-3.2 41.6-12.8s16-22.4 16-38.4c0-16-6.4-32-16-41.6s-25.6-16-44.8-16h-44.8v-64h41.6c44.8 0 67.2-19.2 67.2-60.8 0-16-6.4-32-16-41.6s-25.6-16-44.8-16c-16 0-32 6.4-41.6 16s-16 22.4-16 38.4h-80c0-35.2 12.8-64 38.4-86.4s60.8-32 99.2-32c44.8 0 80 9.6 105.6 32s38.4 51.2 38.4 86.4c0 22.4-6.4 41.6-16 57.6s-28.8 28.8-51.2 38.4z" />
<glyph unicode="&#xe96f;" glyph-name="calendar-5-day" d="M960 960h-896c-35.2 0-64-28.8-64-64v-896c0-35.2 28.8-64 64-64h896c35.2 0 64 28.8 64 64v896c0 35.2-28.8 64-64 64zM960 896v-160h-896v160h896zM64 0v672h896v-672h-896zM528 390.4c-22.4 0-41.6-6.4-60.8-16l9.6 89.6h163.2v67.2h-230.4l-25.6-208 64-16 6.4 6.4c12.8 9.6 28.8 16 48 16 22.4 0 38.4-6.4 48-19.2s16-28.8 16-54.4c0-25.6-6.4-41.6-16-57.6s-25.6-19.2-41.6-19.2c-16 0-28.8 3.2-41.6 12.8s-16 22.4-19.2 38.4h-80c0-22.4 6.4-44.8 19.2-60.8s28.8-32 51.2-41.6 44.8-16 70.4-16c28.8 0 54.4 6.4 73.6 16s35.2 28.8 48 48 16 44.8 16 70.4c0 44.8-9.6 76.8-32 102.4s-48 41.6-86.4 41.6z" />
<glyph unicode="&#xe970;" glyph-name="calendar-month" d="M960 960h-896c-35.2 0-64-28.8-64-64v-896c0-35.2 28.8-64 64-64h896c35.2 0 64 28.8 64 64v896c0 35.2-28.8 64-64 64zM960 896v-160h-896v160h896zM64 0v672h896v-672h-896zM460.8 348.8c19.2 9.6 32 19.2 44.8 35.2s16 32 16 51.2c0 35.2-12.8 64-38.4 86.4s-57.6 32-102.4 32c-25.6 0-48-3.2-67.2-12.8s-38.4-22.4-48-38.4-16-35.2-16-57.6h80c0 12.8 6.4 25.6 16 32s22.4 12.8 38.4 12.8c16 0 32-3.2 41.6-12.8s16-22.4 16-38.4c0-16-6.4-32-16-41.6s-25.6-16-44.8-16h-44.8v-64h41.6c44.8 0 67.2-19.2 67.2-60.8 0-16-6.4-32-16-41.6s-25.6-16-44.8-16c-16 0-32 6.4-41.6 16s-16 22.4-16 38.4h-80c0-35.2 12.8-64 38.4-86.4s60.8-32 99.2-32c44.8 0 80 9.6 105.6 32s38.4 51.2 38.4 86.4c0 22.4-6.4 41.6-16 57.6s-28.8 32-51.2 38.4zM569.6 489.6v-67.2l96 32v-313.6h83.2v409.6h-9.6z" />
<glyph unicode="&#xe971;" glyph-name="calendar-month-pick" d="M1011.2 192h-390.4c-12.8 0-19.2-9.6-9.6-25.6l185.6-220.8c9.6-12.8 25.6-12.8 32 0l185.6 220.8c12.8 16 9.6 25.6-3.2 25.6zM563.2 128h-499.2v512h768v-384h64v553.6c0 32-25.6 57.6-57.6 57.6h-102.4v92.8h-128v-96h-320v96h-128v-96h-105.6c-28.8 0-54.4-25.6-54.4-54.4v-688c0-32 25.6-57.6 57.6-57.6h556.8l-51.2 64c0 0 0 0 0 0zM64 800h768v-96h-768v96zM310.4 380.8l-105.6-112v-51.2h227.2v60.8h-131.2l64 67.2c19.2 22.4 35.2 41.6 41.6 57.6 9.6 16 12.8 35.2 12.8 51.2 0 28.8-9.6 54.4-28.8 70.4s-44.8 25.6-80 25.6c-22.4 0-41.6-3.2-60.8-12.8s-32-22.4-41.6-38.4c-9.6-16-16-35.2-16-54.4v-3.2h73.6v3.2c0 16 3.2 25.6 12.8 35.2 6.4 9.6 16 12.8 28.8 12.8s19.2-3.2 25.6-9.6c6.4-6.4 9.6-16 9.6-28.8 0-9.6-3.2-19.2-9.6-28.8 0-16-9.6-28.8-22.4-44.8zM633.6 489.6h9.6v60.8h-16c-32 0-60.8-6.4-86.4-22.4s-44.8-35.2-57.6-64c-12.8-25.6-19.2-57.6-19.2-92.8v-22.4c0-38.4 9.6-73.6 32-96 16-19.2 35.2-28.8 60.8-35.2 12.8 22.4 38.4 38.4 67.2 38.4h44.8c3.2 6.4 9.6 9.6 12.8 16 9.6 16 12.8 38.4 12.8 57.6 0 32-9.6 60.8-25.6 80-16 22.4-41.6 32-70.4 32-22.4 0-41.6-6.4-57.6-19.2 3.2 19.2 12.8 32 25.6 44.8 16 16 38.4 22.4 67.2 22.4zM550.4 374.4c6.4 3.2 16 6.4 25.6 6.4 12.8 0 22.4-3.2 28.8-12.8s12.8-22.4 12.8-38.4c0-16-3.2-28.8-12.8-38.4-6.4-9.6-16-12.8-28.8-12.8s-22.4 6.4-32 16c-6.4 9.6-12.8 25.6-12.8 48v19.2c6.4 3.2 12.8 9.6 19.2 12.8z" />
<glyph unicode="&#xe972;" glyph-name="calendar-rings-1-day" d="M960 864h-128v96h-128v-96h-384v96h-128v-96h-128c-35.2 0-64-28.8-64-64v-800c0-35.2 28.8-64 64-64h896c35.2 0 64 28.8 64 64v800c0 35.2-28.8 64-64 64zM960 800v-128h-896v128h896zM64 0v608h896v-608h-896zM387.2 448v-67.2l96 28.8v-313.6h83.2v412.8h-9.6z" />
<glyph unicode="&#xe973;" glyph-name="calendar-rings-14-day" d="M960 864h-128v96h-128v-96h-384v96h-128v-96h-128c-35.2 0-64-28.8-64-64v-800c0-35.2 28.8-64 64-64h896c35.2 0 64 28.8 64 64v800c0 35.2-28.8 64-64 64zM960 800v-128h-896v128h896zM64 0v608h896v-608h-896zM240 448v-67.2l96 28.8v-310.4h80v409.6h-6.4zM723.2 508.8h-83.2l-169.6-268.8 3.2-51.2h166.4v-89.6h80v89.6h48v64h-48v256zM640 252.8h-89.6l86.4 134.4 6.4 9.6v-144z" />
<glyph unicode="&#xe974;" glyph-name="calendar-rings-2-day" d="M960 864h-128v96h-128v-96h-384v96h-128v-96h-128c-35.2 0-64-28.8-64-64v-800c0-35.2 28.8-64 64-64h896c35.2 0 64 28.8 64 64v800c0 35.2-28.8 64-64 64zM960 800v-128h-896v128h896zM64 0v608h896v-608h-896zM579.2 259.2c25.6 28.8 44.8 51.2 54.4 73.6s16 41.6 16 60.8c0 38.4-12.8 64-35.2 86.4-22.4 19.2-57.6 28.8-99.2 28.8-28.8 0-51.2-6.4-73.6-16s-38.4-28.8-51.2-48-19.2-44.8-19.2-67.2h80c0 19.2 6.4 38.4 16 51.2s25.6 19.2 44.8 19.2c16 0 28.8-6.4 38.4-16s12.8-25.6 12.8-41.6c0-12.8-3.2-28.8-12.8-41.6-9.6-16-22.4-32-41.6-51.2l-131.2-140.8v-60.8h281.6v64h-176l96 99.2z" />
<glyph unicode="&#xe975;" glyph-name="calendar-rings-28-day" d="M960 864h-128v96h-128v-96h-384v96h-128v-96h-128c-35.2 0-64-28.8-64-64v-800c0-35.2 28.8-64 64-64h896c35.2 0 64 28.8 64 64v800c0 35.2-28.8 64-64 64zM960 0h-896v608h896v-608zM960 672h-896v128h896v-128zM316.8 428.8c9.6 12.8 25.6 19.2 44.8 19.2 16 0 28.8-6.4 38.4-16s12.8-25.6 12.8-41.6c0-12.8-3.2-28.8-12.8-41.6s-22.4-32-41.6-51.2l-131.2-140.8v-54.4h281.6v64h-176l92.8 99.2c25.6 28.8 44.8 51.2 54.4 73.6s16 41.6 16 60.8c0 38.4-12.8 64-35.2 86.4s-57.6 28.8-99.2 28.8c-28.8 0-51.2-6.4-73.6-16s-38.4-32-51.2-51.2-19.2-44.8-19.2-67.2h80c3.2 19.2 9.6 35.2 19.2 48zM550.4 272c-12.8-16-16-35.2-16-60.8 0-35.2 12.8-64 38.4-86.4s57.6-32 102.4-32 76.8 9.6 102.4 32 38.4 51.2 38.4 86.4c0 22.4-6.4 41.6-16 60.8s-28.8 28.8-48 38.4c16 9.6 32 22.4 41.6 38.4s16 32 16 54.4c0 35.2-12.8 64-35.2 83.2s-54.4 32-96 32c-38.4 0-70.4-9.6-96-32s-38.4-51.2-38.4-86.4c0-19.2 6.4-38.4 16-54.4s22.4-28.8 41.6-38.4c-22.4-6.4-38.4-19.2-51.2-35.2zM636.8 435.2c9.6 9.6 19.2 12.8 35.2 12.8s28.8-6.4 35.2-16 12.8-22.4 12.8-38.4c0-16-3.2-28.8-12.8-38.4s-19.2-16-35.2-16-28.8 6.4-35.2 16-12.8 22.4-12.8 38.4c0 19.2 3.2 32 12.8 41.6zM630.4 259.2c9.6 9.6 25.6 16 41.6 16s32-6.4 41.6-16 16-25.6 16-41.6c0-19.2-6.4-32-16-41.6s-22.4-16-41.6-16c-19.2 0-32 6.4-41.6 16s-16 25.6-16 41.6c0 19.2 6.4 32 16 41.6z" />
<glyph unicode="&#xe976;" glyph-name="calendar-rings-3-day" d="M960 864h-128v96h-128v-96h-384v96h-128v-96h-128c-35.2 0-64-28.8-64-64v-800c0-35.2 28.8-64 64-64h896c35.2 0 64 28.8 64 64v800c0 35.2-28.8 64-64 64zM960 800v-128h-896v128h896zM64 0v608h896v-608h-896zM588.8 310.4c19.2 9.6 32 19.2 44.8 35.2s16 32 16 51.2c0 35.2-12.8 64-38.4 86.4s-57.6 32-102.4 32c-25.6 0-48-3.2-67.2-12.8s-38.4-22.4-48-38.4-16-35.2-16-57.6h80c0 12.8 6.4 25.6 16 32s22.4 12.8 38.4 12.8c16 0 32-3.2 41.6-12.8s16-22.4 16-38.4c0-16-6.4-32-16-41.6s-25.6-16-44.8-16h-44.8v-64h41.6c44.8 0 67.2-19.2 67.2-60.8 0-16-6.4-32-16-41.6s-22.4-16-41.6-16c-16 0-32 6.4-41.6 16s-16 22.4-16 38.4h-80c0-35.2 12.8-64 38.4-86.4s60.8-32 99.2-32c44.8 0 80 9.6 105.6 32s38.4 51.2 38.4 86.4c0 22.4-6.4 41.6-16 57.6s-32 32-54.4 38.4z" />
<glyph unicode="&#xe977;" glyph-name="calendar-rings-5-day" d="M960 864h-128v96h-128v-96h-384v96h-128v-96h-128c-35.2 0-64-28.8-64-64v-800c0-35.2 28.8-64 64-64h896c35.2 0 64 28.8 64 64v800c0 35.2-28.8 64-64 64zM960 800v-128h-896v128h896zM64 0v608h896v-608h-896zM512 368c-22.4 0-41.6-6.4-60.8-16l9.6 89.6h163.2v67.2h-230.4l-22.4-208 64-16 6.4 6.4c12.8 9.6 28.8 16 48 16 22.4 0 38.4-6.4 48-19.2s16-28.8 16-54.4c0-25.6-6.4-41.6-16-57.6s-25.6-19.2-41.6-19.2c-16 0-28.8 3.2-41.6 12.8s-16 22.4-19.2 38.4h-80c0-22.4 6.4-44.8 19.2-60.8s28.8-32 51.2-41.6 44.8-16 70.4-16c28.8 0 54.4 6.4 73.6 16s38.4 28.8 48 48 16 44.8 16 70.4c0 44.8-9.6 76.8-32 102.4s-51.2 41.6-89.6 41.6z" />
<glyph unicode="&#xe978;" glyph-name="calendar-rings-month" d="M960 864h-128v96h-128v-96h-384v96h-128v-96h-128c-35.2 0-64-28.8-64-64v-800c0-35.2 28.8-64 64-64h896c35.2 0 64 28.8 64 64v800c0 35.2-28.8 64-64 64zM960 800v-128h-896v128h896zM64 0v608h896v-608h-896zM454.4 310.4c19.2 9.6 32 19.2 44.8 35.2s16 32 16 51.2c0 35.2-12.8 64-38.4 86.4s-57.6 32-102.4 32c-25.6 0-48-3.2-67.2-12.8s-38.4-22.4-48-38.4-16-35.2-16-57.6h80c0 12.8 6.4 25.6 16 32s22.4 12.8 38.4 12.8c16 0 32-3.2 41.6-12.8s16-22.4 16-38.4c0-16-6.4-32-16-41.6s-25.6-16-44.8-16h-44.8v-64h41.6c44.8 0 67.2-19.2 67.2-60.8 0-16-6.4-32-16-41.6s-25.6-16-44.8-16c-16 0-32 6.4-41.6 16s-16 19.2-16 35.2h-83.2c0-35.2 12.8-64 38.4-86.4s60.8-32 99.2-32c44.8 0 80 9.6 105.6 32s38.4 51.2 38.4 86.4c0 22.4-6.4 41.6-16 57.6s-25.6 32-48 41.6zM563.2 448v-64l96 28.8v-313.6h80v409.6h-6.4z" />
<glyph unicode="&#xe979;" glyph-name="calendar-rings-week" d="M960 864h-128v96h-128v-96h-384v96h-128v-96h-128c-35.2 0-64-28.8-64-64v-800c0-35.2 28.8-64 64-64h896c35.2 0 64 28.8 64 64v800c0 35.2-28.8 64-64 64zM960 800v-128h-896v128h896zM64 0v608h896v-608h-896zM364.8 435.2h204.8l-160-342.4h86.4l160 361.6v48h-291.2z" />
<glyph unicode="&#xe97a;" glyph-name="calendar-week" d="M960 960h-896c-35.2 0-64-28.8-64-64v-896c0-35.2 28.8-64 64-64h896c35.2 0 64 28.8 64 64v896c0 35.2-28.8 64-64 64zM960 896v-160h-896v160h896zM64 0v672h896v-672h-896zM380.8 460.8h201.6l-156.8-342.4h86.4l156.8 361.6v48h-288z" />
<glyph unicode="&#xe97b;" glyph-name="calendar-week-globe" d="M64 128v576h768v-169.6c22.4-6.4 44.8-12.8 64-22.4v390.4c0 32-25.6 57.6-57.6 57.6h-780.8c-32 0-57.6-25.6-57.6-57.6v-784c0-32 25.6-57.6 57.6-57.6h390.4c-9.6 19.2-16 41.6-22.4 64h-361.6zM64 896h768v-128h-768v128zM400 201.6l19.2 41.6c6.4 67.2 35.2 131.2 80 179.2l64 144v51.2h-300.8v-73.6h201.6l-160-342.4h96zM752 480c-150.4 0-272-121.6-272-272s121.6-272 272-272c150.4 0 272 121.6 272 272s-121.6 272-272 272zM688 166.4c-3.2 12.8-3.2 25.6-3.2 41.6s0 28.8 3.2 41.6h128c3.2-12.8 3.2-25.6 3.2-41.6s0-28.8-3.2-41.6h-128zM803.2 102.4c-12.8-35.2-28.8-67.2-51.2-92.8-22.4 25.6-38.4 57.6-51.2 92.8h102.4zM544 208c0 12.8 0 28.8 3.2 41.6h73.6c0-12.8-3.2-25.6-3.2-41.6s0-28.8 3.2-41.6h-73.6c-3.2 12.8-3.2 28.8-3.2 41.6zM700.8 313.6c12.8 35.2 28.8 67.2 51.2 92.8 22.4-25.6 38.4-57.6 51.2-92.8h-102.4zM880 249.6h73.6c3.2-12.8 3.2-25.6 3.2-41.6 0-12.8 0-28.8-3.2-41.6h-73.6c0 12.8 3.2 25.6 3.2 41.6 0 12.8 0 28.8-3.2 41.6zM931.2 313.6h-60.8c-9.6 32-19.2 60.8-35.2 86.4 38.4-19.2 73.6-48 96-86.4zM668.8 400c-16-25.6-25.6-54.4-35.2-86.4h-60.8c22.4 38.4 57.6 67.2 96 86.4zM572.8 102.4h60.8c9.6-32 19.2-60.8 35.2-86.4-38.4 19.2-73.6 48-96 86.4zM835.2 16c16 25.6 25.6 54.4 35.2 86.4h60.8c-22.4-38.4-57.6-67.2-96-86.4z" />
<glyph unicode="&#xe97c;" glyph-name="calendar-week-pick" d="M1011.2 192h-390.4c-12.8 0-19.2-9.6-9.6-25.6l185.6-220.8c9.6-12.8 25.6-12.8 32 0l185.6 220.8c12.8 16 9.6 25.6-3.2 25.6zM563.2 128h-499.2v512h768v-384h64v550.4c0 32-25.6 57.6-57.6 57.6h-102.4v96h-128v-96h-320v96h-128v-96h-102.4c-32 0-57.6-25.6-57.6-57.6v-688c0-32 25.6-57.6 57.6-57.6h556.8l-51.2 67.2c0 0 0 0 0 0zM64 800h768v-96h-768v96zM454.4 220.8l124.8 284.8v41.6h-233.6v-60.8h153.6l-121.6-265.6z" />
<glyph unicode="&#xe97d;" glyph-name="camera" d="M528 537.6v0c48 0 92.8-22.4 124.8-57.6 32-38.4 41.6-86.4 32-134.4-12.8-60.8-64-112-124.8-124.8-9.6-3.2-22.4-3.2-32-3.2-48 0-92.8 22.4-124.8 57.6-32 38.4-41.6 86.4-35.2 134.4 12.8 60.8 64 112 124.8 124.8 12.8 3.2 22.4 3.2 35.2 3.2zM528 601.6c-16 0-28.8 0-44.8-3.2-89.6-16-160-86.4-176-176-25.6-144 83.2-268.8 220.8-268.8 12.8 0 28.8 0 44.8 3.2 89.6 16 160 86.4 176 176 25.6 144-83.2 268.8-220.8 268.8v0zM832 640h96v-128h-96v128zM601.6 800l64-128h294.4v-576h-896v576h294.4l64 128h179.2zM640 864h-256l-64-128h-256c-35.2 0-64-28.8-64-64v-576c0-35.2 28.8-64 64-64h896c35.2 0 64 28.8 64 64v576c0 35.2-28.8 64-64 64h-256l-64 128z" />
<glyph unicode="&#xe97e;" glyph-name="camera-alt" d="M512 425.6c70.4 0 128-57.6 128-128s-57.6-128-128-128c-70.4 0-128 57.6-128 128s57.6 128 128 128zM512 489.6c-105.6 0-192-86.4-192-192s86.4-192 192-192c105.6 0 192 86.4 192 192s-86.4 192-192 192v0zM188.8 377.6c-32 0-60.8 25.6-60.8 60.8 0 32 25.6 60.8 60.8 60.8 32 0 60.8-25.6 60.8-60.8s-25.6-60.8-60.8-60.8zM633.6 704l44.8-92.8 19.2-35.2h262.4v-576h-896v576h262.4l19.2 35.2 44.8 92.8h243.2zM652.8 768h-281.6c-12.8 0-22.4-6.4-28.8-19.2l-54.4-108.8h-224c-35.2 0-64-28.8-64-64v-576c0-35.2 28.8-64 64-64h896c35.2 0 64 28.8 64 64v576c0 35.2-28.8 64-64 64h-224l-54.4 108.8c-6.4 12.8-16 19.2-28.8 19.2v0z" />
<glyph unicode="&#xe97f;" glyph-name="camera-barcode" d="M169.6 342.4c-25.6 0-48 22.4-48 48s22.4 48 48 48c25.6 0 48-22.4 48-48s-19.2-48-48-48zM460.8 377.6c60.8 0 112-51.2 112-112s-51.2-112-112-112c-60.8 0-112 51.2-112 112s51.2 112 112 112zM460.8 441.6c-96 0-176-80-176-176s80-176 176-176c96 0 176 80 176 176s-80 176-176 176v0zM553.6 608l38.4-76.8 19.2-35.2h230.4v-496h-777.6v496h230.4l19.2 35.2 38.4 76.8h201.6zM576 672h-249.6c-9.6 0-19.2-6.4-22.4-16l-48-96h-198.4c-32 0-57.6-25.6-57.6-57.6v-508.8c0-32 25.6-57.6 57.6-57.6h793.6c32 0 57.6 25.6 57.6 57.6v508.8c0 32-25.6 57.6-57.6 57.6h-198.4l-48 96c-6.4 9.6-16 16-28.8 16v0zM246.4 684.8c9.6 19.2 22.4 32 41.6 41.6v233.6h-96v-336h22.4l32 60.8zM352 960h128v-224h-128v224zM608 729.6v230.4h-64v-224h32c12.8 0 22.4-3.2 32-6.4zM848 624c6.4 0 9.6 0 16 0v336h-192v-300.8l19.2-38.4h156.8zM1024 960h-96v-368c25.6-22.4 41.6-54.4 41.6-89.6v-342.4h54.4v800z" />
<glyph unicode="&#xe980;" glyph-name="camera-upload" d="M819.2 924.8l-198.4-188.8 44.8-48 121.6 118.4v-387.2h64v387.2l121.6-118.4 44.8 48zM121.6 390.4c0-25.6 22.4-48 48-48s48 22.4 48 48c0 25.6-22.4 48-48 48s-48-22.4-48-48zM460.8 441.6c-96 0-176-80-176-176s80-176 176-176c96 0 176 80 176 176s-80 176-176 176zM460.8 153.6c-60.8 0-112 51.2-112 112s51.2 112 112 112c60.8 0 112-51.2 112-112s-51.2-112-112-112zM841.6 355.2v-355.2h-777.6v496h230.4l19.2 35.2 38.4 76.8h204.8l38.4-76.8 19.2-35.2h108.8v64h-70.4l-48 96c-6.4 9.6-16 16-28.8 16h-249.6c-9.6 0-19.2-6.4-22.4-16l-48-96h-198.4c-32 0-57.6-25.6-57.6-57.6v-508.8c0-32 25.6-57.6 57.6-57.6h793.6c32 0 57.6 25.6 57.6 57.6v361.6h-67.2z" />
<glyph unicode="&#xe981;" glyph-name="capture-new" d="M0 576h64v-224h-64v224zM960 576h64v-224h-64v224zM384 0h256v-64h-256v64zM960 960h-160v-64h160v-160h64v160c0 35.2-28.8 64-64 64zM960 0h-160v-64h160c35.2 0 64 28.8 64 64v185.6h-64v-185.6zM384 960h256v-64h-256v64zM0 896v-160h64v160h160v64h-160c-35.2 0-64-28.8-64-64zM64 185.6h-64v-185.6c0-35.2 28.8-64 64-64h160v64h-160v185.6zM816 304v64h-160v160h-64v-160h-160v-64h160v-160h64v160z" />
<glyph unicode="&#xe982;" glyph-name="card-info" d="M960 736v-608h-896v608h896zM992 800h-960c-19.2 0-32-12.8-32-32v-662.4c0-22.4 19.2-41.6 41.6-41.6h940.8c22.4 0 41.6 19.2 41.6 41.6v662.4c0 19.2-12.8 32-32 32v0zM608 608h256v-64h-256v64zM608 448h256v-64h-256v64zM608 288h256v-64h-256v64zM512 256c0-19.2-12.8-32-32-32h-288c-19.2 0-32 12.8-32 32v320c0 19.2 12.8 32 32 32h288c19.2 0 32-12.8 32-32v-320z" />
<glyph unicode="&#xe983;" glyph-name="card-smartcard" d="M982.4 832h-940.8c-22.4 0-41.6-19.2-41.6-41.6v-681.6c0-25.6 19.2-44.8 41.6-44.8h937.6c22.4 0 41.6 19.2 41.6 41.6v684.8c3.2 22.4-16 41.6-38.4 41.6zM960 128h-896v512h896v-512zM960 704h-896v64h896v-64zM640 512h96v-64h-96v64zM448 288h128v-96h-128v96zM896 416h-288v96h-160v-192h448zM768 512h128v-64h-128v64zM608 288h128v-96h-128v96zM768 288h128v-96h-128v96z" />
<glyph unicode="&#xe984;" glyph-name="card-swipe" d="M982.4 800h-940.8c-22.4 0-41.6-19.2-41.6-41.6v-617.6c0-25.6 19.2-44.8 41.6-44.8h937.6c22.4 0 41.6 19.2 41.6 41.6v620.8c3.2 22.4-16 41.6-38.4 41.6zM960 736v-64h-896v64h896zM64 160v448h896v-448h-896zM128 544h320v-64h-320v64zM128 416h320v-64h-320v64zM128 288h320v-64h-320v64zM707.2 489.6l80-73.6h-243.2v-64h236.8l-73.6-73.6 44.8-44.8 160 156.8-160 144z" />
<glyph unicode="&#xe985;" glyph-name="card-swipe-left" d="M982.4 800h-940.8c-22.4 0-41.6-19.2-41.6-41.6v-617.6c0-25.6 19.2-44.8 41.6-44.8h937.6c22.4 0 41.6 19.2 41.6 41.6v620.8c3.2 22.4-16 41.6-38.4 41.6zM960 160h-896v448h896v-448zM960 672h-896v64h896v-64zM316.8 278.4l-73.6 73.6h236.8v64h-243.2l80 73.6-44.8 44.8-160-144 160-156.8z" />
<glyph unicode="&#xe986;" glyph-name="card-swipe-right" d="M982.4 800h-940.8c-22.4 0-41.6-19.2-41.6-41.6v-617.6c0-25.6 19.2-44.8 41.6-44.8h937.6c22.4 0 41.6 19.2 41.6 41.6v620.8c3.2 22.4-16 41.6-38.4 41.6zM960 160h-896v448h896v-448zM960 672h-896v64h896v-64zM707.2 278.4l44.8-44.8 160 156.8-160 144-44.8-44.8 80-73.6h-243.2v-64h236.8z" />
<glyph unicode="&#xe987;" glyph-name="cart" d="M1024 832h-819.2l-16 128h-188.8v-64h131.2l96-704h700.8l9.6 64h-652.8l-12.8 92.8h681.6l70.4 483.2zM899.2 412.8h-636.8l-48 355.2h736l-51.2-355.2zM342.4 163.2c-64 0-115.2-51.2-115.2-115.2s51.2-115.2 115.2-115.2c64 0 115.2 51.2 115.2 115.2-3.2 64-54.4 115.2-115.2 115.2zM819.2 163.2c-64 0-115.2-51.2-115.2-115.2s51.2-115.2 115.2-115.2c64 0 115.2 51.2 115.2 115.2s-51.2 115.2-115.2 115.2z" />
<glyph unicode="&#xe988;" glyph-name="center-arrow" d="M512 960l-214.4-224h428.8zM512-64l214.4 224h-428.8zM0 448l224-214.4v428.8zM1024 448l-224 214.4v-428.8zM512 608c89.6 0 160-70.4 160-160s-70.4-160-160-160-160 70.4-160 160 70.4 160 160 160zM512 672c-124.8 0-224-99.2-224-224s99.2-224 224-224 224 99.2 224 224-99.2 224-224 224v0z" />
<glyph unicode="&#xe989;" glyph-name="chain-link" d="M480 198.4l-128-128c-25.6-25.6-60.8-38.4-96-38.4-41.6 0-83.2 16-112 48-60.8 60.8-64 153.6-9.6 208l230.4 230.4c25.6 25.6 57.6 38.4 96 38.4 41.6 0 83.2-16 112-48 28.8-28.8 44.8-64 48-99.2 0 0 3.2 3.2 3.2 3.2l76.8 76.8c-12.8 32-32 64-57.6 89.6-48 48-115.2 76.8-179.2 76.8-60.8 0-118.4-22.4-163.2-67.2l-230.4-230.4c-92.8-92.8-86.4-246.4 9.6-342.4 44.8-51.2 108.8-80 176-80 60.8 0 118.4 22.4 163.2 67.2l195.2 192c-19.2-3.2-35.2-6.4-54.4-6.4-28.8 0-54.4 6.4-80 9.6zM947.2 883.2c-48 51.2-112 76.8-179.2 76.8-64 0-121.6-25.6-166.4-67.2l-198.4-198.4c19.2 3.2 38.4 6.4 57.6 6.4 25.6 0 51.2-3.2 73.6-9.6l137.6 134.4c25.6 25.6 60.8 38.4 96 38.4 41.6 0 80-16 112-48 60.8-60.8 64-153.6 6.4-208l-233.6-233.6c-25.6-25.6-60.8-38.4-99.2-38.4-41.6 0-80 16-112 48-28.8 28.8-44.8 64-44.8 102.4l-76.8-83.2c12.8-32 32-64 57.6-89.6 48-48 112-76.8 179.2-76.8 64 0 121.6 25.6 166.4 67.2l233.6 233.6c92.8 96 89.6 249.6-9.6 345.6z" />
<glyph unicode="&#xe98a;" glyph-name="chain-link-bent" d="M313.6 204.8h-86.4c-25.6 0-48 9.6-64 28.8-22.4 22.4-32 51.2-32 83.2 0 60.8 44.8 112 99.2 112v0 0 0h313.6c25.6 0 48-9.6 64-28.8 12.8-12.8 19.2-25.6 25.6-41.6l96 96c-9.6 12.8-19.2 25.6-28.8 38.4-41.6 41.6-96 64-156.8 64h-313.6c-128 0-230.4-108.8-230.4-240 0-67.2 25.6-128 70.4-172.8 41.6-41.6 96-64 156.8-64 0 0 0 0 0 0h252.8c-73.6 19.2-131.2 73.6-166.4 124.8zM950.4 748.8c-48 48-108.8 73.6-172.8 73.6-60.8 0-118.4-22.4-160-64l-134.4-134.4h51.2c38.4 0 73.6-6.4 108.8-22.4l64 64c19.2 19.2 41.6 28.8 67.2 28.8 32 0 57.6-12.8 83.2-35.2 44.8-44.8 48-112 6.4-150.4l-224-224c-19.2-19.2-41.6-28.8-67.2-28.8-32 0-57.6 12.8-83.2 35.2-22.4 22.4-32 48-35.2 76.8h-128c3.2-60.8 25.6-118.4 73.6-166.4s108.8-73.6 172.8-73.6c60.8 0 118.4 22.4 160 64l224 224c92.8 89.6 89.6 236.8-6.4 332.8z" />
<glyph unicode="&#xe98b;" glyph-name="chain-unlink" d="M947.2 883.2c-48 48-115.2 76.8-179.2 76.8-60.8 0-118.4-22.4-163.2-67.2l-147.2-147.2c-51.2-51.2-51.2-131.2 0-179.2l51.2-51.2 67.2 67.2-51.2 51.2c-12.8 12.8-12.8 32 0 44.8l147.2 147.2c25.6 22.4 57.6 38.4 96 38.4 41.6 0 83.2-16 112-48 60.8-60.8 64-153.6 9.6-208l-147.2-147.2c-9.6-9.6-19.2-9.6-22.4-9.6-6.4 0-16 0-22.4 9.6l-54.4 51.2-67.2-67.2 51.2-51.2c25.6-25.6 57.6-38.4 89.6-38.4s64 12.8 89.6 38.4l147.2 147.2c96 92.8 89.6 246.4-6.4 342.4zM505.6 272c9.6-9.6 9.6-19.2 9.6-22.4 0-6.4 0-16-9.6-22.4l-153.6-153.6c-25.6-25.6-60.8-41.6-96-41.6-41.6 0-80 16-112 48-60.8 60.8-64 153.6-6.4 208l153.6 153.6c9.6 9.6 19.2 9.6 22.4 9.6 6.4 0 16 0 22.4-9.6l51.2-51.2 67.2 67.2-51.2 51.2c-25.6 25.6-57.6 38.4-89.6 38.4s-64-12.8-89.6-38.4l-153.6-153.6c-92.8-92.8-89.6-246.4 6.4-342.4 48-48 112-76.8 179.2-76.8 64 0 121.6 22.4 166.4 67.2l153.6 153.6c51.2 51.2 51.2 131.2 0 179.2l-51.2 51.2-67.2-67.2 48-48zM992 284.8h-131.2c-19.2 0-32 12.8-32 32s12.8 32 32 32h131.2c19.2 0 32-12.8 32-32s-12.8-32-32-32zM163.2 547.2h-131.2c-19.2 0-32 12.8-32 32s12.8 32 32 32h131.2c19.2 0 32-12.8 32-32s-16-32-32-32zM889.6 38.4c-9.6 0-16 3.2-22.4 9.6l-92.8 92.8c-12.8 12.8-12.8 32 0 44.8s32 12.8 44.8 0l92.8-92.8c12.8-12.8 12.8-32 0-44.8-6.4-6.4-12.8-9.6-22.4-9.6zM227.2 700.8c-9.6 0-16 3.2-22.4 9.6l-92.8 92.8c-12.8 12.8-12.8 32 0 44.8s32 12.8 44.8 0l92.8-92.8c12.8-12.8 12.8-32 0-44.8-6.4-6.4-16-9.6-22.4-9.6zM643.2-64c-19.2 0-32 12.8-32 32v131.2c0 19.2 12.8 32 32 32s32-12.8 32-32v-131.2c0-19.2-12.8-32-32-32zM380.8 764.8c-19.2 0-32 12.8-32 32v131.2c0 19.2 12.8 32 32 32s32-12.8 32-32v-131.2c0-16-16-32-32-32z" />
<glyph unicode="&#xe98c;" glyph-name="chain-unlink-alt" d="M93.387 821.342l45.254 45.254 791.952-791.952-45.254-45.254-791.952 791.952zM672 825.6c25.6 25.6 60.8 38.4 96 38.4 41.6 0 83.2-16 112-48 60.8-60.8 64-153.6 9.6-208l-201.6-201.6 67.2-67.2 201.6 201.6c92.8 92.8 86.4 246.4-9.6 342.4-48 48-112 76.8-179.2 76.8-60.8 0-118.4-22.4-163.2-67.2l-201.6-201.6 67.2-67.2 201.6 201.6zM352 70.4c-25.6-25.6-60.8-38.4-96-38.4-41.6 0-80 16-112 48-60.8 60.8-64 153.6-6.4 208l201.6 201.6-67.2 67.2-201.6-201.6c-92.8-92.8-89.6-246.4 6.4-345.6 48-48 112-73.6 179.2-73.6 64 0 121.6 25.6 166.4 67.2l201.6 201.6-67.2 67.2-204.8-201.6z" />
<glyph unicode="&#xe98d;" glyph-name="charge-back" d="M483.2 633.6v-22.4c121.6-44.8 211.2-160 211.2-297.6 0-172.8-140.8-313.6-313.6-313.6-176 0-316.8 140.8-316.8 313.6 0 83.2 35.2 160 89.6 217.6l-48 44.8c-64-67.2-105.6-160-105.6-259.2 0-211.2 169.6-380.8 377.6-380.8s377.6 169.6 377.6 377.6c0 134.4-70.4 252.8-179.2 320-3.2 0-6.4 0-9.6 0h-83.2zM646.4 960c-99.2 0-188.8-38.4-256-99.2h108.8c41.6 22.4 92.8 35.2 147.2 35.2 172.8 0 313.6-140.8 313.6-313.6 0-108.8-54.4-204.8-137.6-259.2 0-3.2 0-3.2 0-6.4 0-22.4-3.2-48-6.4-70.4 121.6 64 208 188.8 208 339.2 0 204.8-169.6 374.4-377.6 374.4zM352 44.8v60.8c-44.8 0-89.6 12.8-115.2 28.8l19.2 60.8c28.8-16 67.2-28.8 112-28.8s76.8 19.2 76.8 51.2c0 28.8-25.6 48-80 64-76.8 25.6-124.8 54.4-124.8 115.2 0 54.4 44.8 96 115.2 108.8v64h57.6v-60.8c44.8 0 76.8-9.6 99.2-22.4l-19.2-57.6c-16 6.4-48 22.4-99.2 22.4s-67.2-22.4-67.2-44.8c0-25.6 25.6-41.6 86.4-64 80-25.6 115.2-60.8 115.2-118.4 0-54.4-41.6-102.4-121.6-115.2v-67.2h-54.4zM563.2 780.8h-406.4l137.6 118.4-41.6 48-230.4-198.4 230.4-201.6 41.6 48-137.6 121.6h406.4z" />
<glyph unicode="&#xe98e;" glyph-name="charge-back-folder" d="M67.2 236.8c-3.2 0-3.2 3.2-3.2 6.4v409.6h355.2c25.6 6.4 51.2 9.6 76.8 12.8 22.4 19.2 48 38.4 76.8 51.2h-508.8v179.2h265.6v-89.6h534.4c6.4 0 9.6-3.2 9.6-9.6v-67.2c6.4-3.2 12.8-6.4 19.2-9.6 3.2-3.2 9.6-3.2 12.8-6.4 9.6-6.4 22.4-12.8 32-19.2v105.6c0 41.6-32 73.6-73.6 73.6h-470.4v32c0 32-25.6 60.8-60.8 60.8l-272-6.4c-35.2 0-60.8-28.8-60.8-60.8v-659.2c0-38.4 32-70.4 67.2-70.4h60.8c-6.4 19.2-9.6 41.6-9.6 64h-51.2zM720 694.4c-48 0-92.8-12.8-131.2-32 35.2-6.4 70.4-19.2 102.4-35.2 9.6 0 19.2 3.2 32 3.2 131.2 0 240-108.8 240-240 0-54.4-19.2-105.6-51.2-147.2-3.2-38.4-9.6-73.6-22.4-105.6 83.2 54.4 137.6 147.2 137.6 252.8-3.2 166.4-140.8 304-307.2 304zM512 604.8c-182.4 0-332.8-150.4-332.8-332.8 0-185.6 150.4-336 332.8-336s332.8 150.4 332.8 332.8c0 185.6-147.2 336-332.8 336zM512 0c-147.2 0-268.8 121.6-268.8 268.8s121.6 268.8 268.8 268.8c147.2 0 268.8-121.6 268.8-268.8s-118.4-268.8-268.8-268.8zM540.8 304c-54.4 19.2-70.4 32-70.4 48s12.8 32 51.2 32c38.4 0 64-9.6 80-16l9.6-3.2 22.4 64-6.4 3.2c-25.6 9.6-51.2 16-83.2 19.2v51.2h-64v-54.4c-60.8-12.8-99.2-51.2-99.2-99.2 0-60.8 57.6-89.6 112-105.6 44.8-16 64-28.8 64-48 0-22.4-22.4-35.2-57.6-35.2-32 0-67.2 9.6-92.8 22.4l-6.4 3.2-22.4-67.2 6.4-3.2c22.4-12.8 60.8-22.4 99.2-25.6v-57.6h67.2v57.6c64 12.8 105.6 51.2 105.6 105.6-9.6 51.2-41.6 83.2-115.2 108.8z" />
<glyph unicode="&#xe98f;" glyph-name="chart-bars" d="M35.2 537.6h192v-534.4h-192v534.4zM291.2 320h192v-320h-192v320zM547.2 896h192v-892.8h-192v892.8zM796.8 608h192v-608h-192v608z" />
<glyph unicode="&#xe990;" glyph-name="chart-bars-box" d="M208 480h128v-416h-128v416zM448 800h128v-736h-128v736zM684.8 544h128v-480h-128v480zM880 896c19.2 0 32-12.8 32-32v-832c0-19.2-12.8-32-32-32h-736c-19.2 0-32 12.8-32 32v832c0 19.2 12.8 32 32 32h736zM880 960h-736c-54.4 0-96-41.6-96-96v-832c0-54.4 41.6-96 96-96h736c54.4 0 96 41.6 96 96v832c0 54.4-41.6 96-96 96v0z" />
<glyph unicode="&#xe991;" glyph-name="chart-bars-box-solid" d="M912 960h-800c-35.2 0-64-28.8-64-64v-896c0-35.2 28.8-64 64-64h800c35.2 0 64 28.8 64 64v896c0 35.2-28.8 64-64 64zM336 64h-128v416h128v-416zM576 64h-128v736h128v-736zM816 64h-128v480h128v-480z" />
<glyph unicode="&#xe992;" glyph-name="chart-lines" d="M998.4 854.4l-428.8-377.6-268.8 144c-6.4 3.2-12.8 3.2-16 0l-278.4-188.8c-3.2-3.2-6.4-9.6-6.4-12.8v-380.8h1024v803.2c0 12.8-16 22.4-25.6 12.8zM64 393.6l233.6 160 243.2-131.2 38.4-22.4 32 28.8 348.8 307.2v-393.6l-198.4 54.4-153.6-137.6-233.6 115.2-310.4-121.6v140.8zM960 102.4h-896v80l310.4 121.6 249.6-121.6 160 144 179.2-51.2v-172.8z" />
<glyph unicode="&#xe993;" glyph-name="chart-lines-axis" d="M1024-64h-1024v1024h64v-960h960zM480 608h192v-544h-192v544zM796.8 771.2h192v-704h-192v704zM163.2 931.2h192v-864h-192v864z" />
<glyph unicode="&#xe994;" glyph-name="chart-lines-box" d="M896 707.2c0 12.8-16 22.4-25.6 12.8l-313.6-278.4-198.4 108.8c-6.4 3.2-12.8 3.2-16 0l-204.8-140.8c-6.4-3.2-9.6-9.6-9.6-12.8v-284.8h768v595.2zM192 371.2l160 108.8 172.8-92.8 38.4-22.4 32 28.8 233.6 208v-233.6h-131.2l-144-64-144 70.4-217.6-86.4v83.2zM832 176h-640v41.6l214.4 86.4 147.2-73.6 160 73.6h118.4v-128zM992 912h-960c-19.2 0-32-12.8-32-32v-864c0-19.2 12.8-32 32-32h960c19.2 0 32 12.8 32 32v864c0 19.2-12.8 32-32 32zM960 48h-896v800h896v-800z" />
<glyph unicode="&#xe995;" glyph-name="chart-pie" d="M364.8 812.8v-470.4l361.6-240c-70.4-57.6-163.2-89.6-256-89.6-224-3.2-406.4 179.2-406.4 406.4 0 188.8 124.8 345.6 300.8 393.6zM428.8 889.6c-240-22.4-428.8-224-428.8-470.4 0-262.4 211.2-473.6 473.6-473.6 144 0 268.8 64 355.2 163.2l-400 265.6v515.2zM934.4 121.6c12.8 16 22.4 35.2 32 54.4 38.4 73.6 57.6 153.6 57.6 233.6h-521.6l432-288zM563.2 880c48-6.4 96-22.4 140.8-44.8 118.4-60.8 204.8-169.6 240-294.4h-380.8v339.2zM499.2 950.4v-473.6h521.6c-19.2 172.8-121.6 332.8-284.8 416-76.8 38.4-156.8 57.6-236.8 57.6v0z" />
<glyph unicode="&#xe996;" glyph-name="check-properties" d="M476.8 28.8l-262.4 217.6 41.6 48 211.2-176 291.2 352 51.2-41.6zM476.8 425.6l-262.4 217.6 41.6 51.2 211.2-179.2 291.2 352 51.2-38.4z" />
<glyph unicode="&#xe997;" glyph-name="check-property" d="M476.8 227.2l-262.4 217.6 41.6 48 211.2-176 291.2 352 51.2-41.6z" />
<glyph unicode="&#xe998;" glyph-name="checklist" d="M976 960h-928c-25.6 0-48-22.4-48-48v-928c0-25.6 22.4-48 48-48h928c25.6 0 48 22.4 48 48v928c0 25.6-22.4 48-48 48zM960 0h-896v896h896v-896zM435.2 780.8l-48 38.4-105.6-134.4-73.6 51.2-38.4-51.2 124.8-89.6zM435.2 524.8l-48 38.4-105.6-134.4-73.6 51.2-38.4-51.2 124.8-89.6zM284.8 172.8l-73.6 51.2-38.4-51.2 124.8-89.6 144 185.6-51.2 38.4zM544 448h320v-64h-320v64zM544 672h320v-64h-320v64zM544 224h320v-64h-320v64z" />
<glyph unicode="&#xe999;" glyph-name="chev-circ-right" d="M441.6 172.8l-44.8 44.8 233.6 230.4-233.6 230.4 48 44.8 275.2-275.2zM512 960c-281.6 0-512-230.4-512-512s230.4-512 512-512c281.6 0 512 230.4 512 512s-230.4 512-512 512zM512 0c-246.4 0-448 201.6-448 448s201.6 448 448 448 448-201.6 448-448c0-246.4-201.6-448-448-448z" />
<glyph unicode="&#xe99a;" glyph-name="chev-circ-right-solid" d="M512 960c-281.6 0-512-230.4-512-512s230.4-512 512-512c281.6 0 512 230.4 512 512s-230.4 512-512 512zM454.4 160l-67.2 67.2 220.8 217.6-217.6 220.8 64 70.4 288-288-288-288z" />
<glyph unicode="&#xe99b;" glyph-name="chev-down" d="M512 265.6l-457.6 457.6-44.8-48 502.4-502.4 502.4 502.4-44.8 48z" />
<glyph unicode="&#xe99c;" glyph-name="chev-down-thick" d="M0 601.6l102.4 102.4 409.6-409.6 409.6 409.6 102.4-102.4-512-512z" />
<glyph unicode="&#xe99d;" glyph-name="chev-left" d="M236.8 448l502.4-502.4 48 44.8-457.6 457.6 457.6 457.6-48 44.8z" />
<glyph unicode="&#xe99e;" glyph-name="chev-left-thick" d="M716.8 960l102.4-102.4-409.6-409.6 409.6-409.6-102.4-102.4-512 512z" />
<glyph unicode="&#xe99f;" glyph-name="chev-right" d="M787.2 448l-502.4 502.4-48-44.8 457.6-457.6-457.6-457.6 48-44.8z" />
<glyph unicode="&#xe9a0;" glyph-name="chev-right-thick" d="M307.2-64l-102.4 102.4 409.6 409.6-409.6 409.6 102.4 102.4 512-512z" />
<glyph unicode="&#xe9a1;" glyph-name="chev-up" d="M512 723.2l-502.4-502.4 44.8-48 457.6 457.6 457.6-457.6 44.8 48z" />
<glyph unicode="&#xe9a2;" glyph-name="chev-up-thick" d="M1024 243.2l-102.4-102.4-409.6 409.6-409.6-409.6-102.4 102.4 512 512z" />
<glyph unicode="&#xe9a3;" glyph-name="clipboard-blank" d="M608 960h-192v-192h-96c-54.4 0-96-41.6-96-96v-32h576v32c0 54.4-51.2 96-102.4 96h-89.6v192zM512 800c-25.6 0-48 22.4-48 48s22.4 48 48 48c25.6 0 48-22.4 48-48s-22.4-48-48-48v0zM864 896h-192v-64h192v-832h-704v832h192v64h-192c-35.2 0-64-28.8-64-64v-832c0-35.2 28.8-64 64-64h704c35.2 0 64 28.8 64 64v832c0 35.2-28.8 64-64 64z" />
<glyph unicode="&#xe9a4;" glyph-name="clipboard-blank-check" d="M614.4 51.2l-220.8 214.4 44.8 44.8 176-169.6 355.2 358.4 44.8-44.8zM633.6 768h-89.6v192h-192v-192h-96c-51.2 0-96-41.6-96-96v-32h576v32c0 54.4-51.2 96-102.4 96zM448 800c-25.6 0-48 22.4-48 48s22.4 48 48 48c25.6 0 48-22.4 48-48s-22.4-48-48-48zM800 832v-412.8l64 64v348.8c0 35.2-28.8 64-64 64h-192v-64h192zM800 0h-704v832h192v64h-192c-35.2 0-64-28.8-64-64v-832c0-35.2 28.8-64 64-64h704c35.2 0 64 28.8 64 64v211.2l-64-64v-147.2z" />
<glyph unicode="&#xe9a5;" glyph-name="clipboard-blank-circ-check" d="M601.6 768h-89.6v192h-192v-192h-96c-54.4 0-96-41.6-96-96v-32h576v32c0 54.4-51.2 96-102.4 96zM416 800c-25.6 0-48 22.4-48 48s22.4 48 48 48c25.6 0 48-22.4 48-48s-22.4-48-48-48zM768 832v-320c22.4 0 44.8-3.2 64-6.4v326.4c0 35.2-28.8 64-64 64h-192v-64h192zM512 0h-448v832h192v64h-192c-35.2 0-64-28.8-64-64v-832c0-35.2 28.8-64 64-64h512c-22.4 19.2-44.8 38.4-64 64zM768 448c-140.8 0-256-115.2-256-256s115.2-256 256-256c140.8 0 256 115.2 256 256s-115.2 256-256 256zM736 60.8l-118.4 128 48 44.8 73.6-80 144 144 44.8-44.8-192-192z" />
<glyph unicode="&#xe9a6;" glyph-name="clipboard-chart" d="M726.4 784h-118.4v176h-192v-176h-115.2c-35.2 0-64-28.8-64-64v-64h556.8v64c-3.2 35.2-32 64-67.2 64zM544 819.2h-64v64h64v-64zM848 896c0 0 0 0 0 0h-172.8v-64h172.8v-832h-672v832h176v64h-176c-35.2 0-64-28.8-64-64v-832c0-35.2 28.8-64 64-64h672c35.2 0 64 28.8 64 64v832c0 35.2-28.8 64-64 64zM755.2 355.2c-6.4 70.4-48 137.6-112 172.8-28.8 16-60.8 22.4-92.8 22.4v-195.2h204.8zM736 307.2c0-131.2-105.6-233.6-233.6-233.6s-233.6 105.6-233.6 233.6 105.6 233.6 233.6 233.6v-233.6h233.6z" />
<glyph unicode="&#xe9a7;" glyph-name="clipboard-check" d="M614.4 12.8l-220.8 211.2 44.8 48 176-169.6 355.2 358.4 44.8-44.8zM633.6 768h-89.6v192h-192v-192h-96c-54.4 0-96-41.6-96-96v-32h576v32c0 54.4-51.2 96-102.4 96zM448 800c-25.6 0-48 22.4-48 48s22.4 48 48 48c25.6 0 48-22.4 48-48s-22.4-48-48-48zM672 480h-448v64h448v-64zM224 544h448v-64h-448v64zM451.2 345.6c16 0 32-6.4 44.8-19.2l6.4-6.4h169.6v64h-448v-64h176l3.2 6.4c12.8 12.8 28.8 19.2 48 19.2zM800 0h-83.2l-54.4-57.6c-3.2-3.2-6.4-6.4-9.6-6.4h147.2c35.2 0 64 28.8 64 64v150.4l-64-64v-86.4zM512 0h-416v832h192v64h-192c-35.2 0-64-28.8-64-64v-832c0-35.2 28.8-64 64-64h483.2c-3.2 3.2-6.4 3.2-9.6 6.4l-57.6 57.6zM800 832v-428.8l64 64v364.8c0 35.2-28.8 64-64 64h-192v-64h192z" />
<glyph unicode="&#xe9a8;" glyph-name="clipboard-checklist" d="M416 531.2l-86.4-102.4-48 38.4-38.4-48 96-80 128 153.6zM281.6 243.2l-38.4-48 96-80 128 153.6-51.2 38.4-86.4-102.4zM550.4 224h217.6v-64h-217.6v64zM550.4 416h217.6v-64h-217.6v64zM224 672v-32h576v32c0 54.4-51.2 96-102.4 96h-89.6v192h-192v-192h-96c-54.4 0-96-41.6-96-96zM512 896c25.6 0 48-22.4 48-48s-22.4-48-48-48c-25.6 0-48 22.4-48 48s22.4 48 48 48zM864 896h-192v-64h192v-832h-704v832h192v64h-192c-35.2 0-64-28.8-64-64v-832c0-35.2 28.8-64 64-64h704c35.2 0 64 28.8 64 64v832c0 35.2-28.8 64-64 64z" />
<glyph unicode="&#xe9a9;" glyph-name="clipboard-circ-check" d="M128 672v-32h576v32c0 54.4-51.2 96-102.4 96h-89.6v192h-192v-192h-96c-54.4 0-96-41.6-96-96zM416 896c25.6 0 48-22.4 48-48s-22.4-48-48-48c-25.6 0-48 22.4-48 48s22.4 48 48 48zM640 486.4v57.6h-448v-64h438.4c3.2 3.2 6.4 3.2 9.6 6.4zM192 320h281.6c9.6 22.4 22.4 44.8 38.4 64h-320v-64zM512 0h-448v832h192v64h-192c-35.2 0-64-28.8-64-64v-832c0-35.2 28.8-64 64-64h512c-22.4 19.2-44.8 38.4-64 64zM768 512c22.4 0 44.8-3.2 64-6.4v326.4c0 35.2-28.8 64-64 64h-192v-64h192v-320zM640 480v6.4c-3.2 0-6.4-3.2-9.6-6.4h9.6zM768 448c-140.8 0-256-115.2-256-256s115.2-256 256-256c140.8 0 256 115.2 256 256s-115.2 256-256 256zM732.8 60.8l-118.4 128 48 44.8 73.6-80 144 144 44.8-44.8-192-192z" />
<glyph unicode="&#xe9aa;" glyph-name="clipboard-doc" d="M864 608h-320c-35.2 0-64-28.8-64-64v-544c0-35.2 28.8-64 64-64h416c35.2 0 64 28.8 64 64v448l-160 160zM960 0h-416v544h224v-118.4c0-38.4 25.6-67.2 64-67.2h128v-358.4zM960 419.2h-128c0 0 0 0 0 6.4v118.4h6.4l121.6-124.8zM608 160h288v-64h-288v64zM608 288h288v-64h-288v64zM672 713.6v-41.6h64v179.2c0 25.6-19.2 44.8-41.6 44.8h-182.4v-64h160v-118.4zM576 768h-128v163.2c0 0 0 28.8-28.8 28.8h-99.2c0 0-28.8 0-28.8-28.8l-3.2-163.2h-115.2c-25.6 0-44.8-22.4-44.8-48v-48h480v48c0 25.6-6.4 48-32 48zM371.2 787.2c-25.6 0-44.8 19.2-44.8 44.8s19.2 44.8 44.8 44.8c25.6 0 44.8-19.2 44.8-44.8s-19.2-44.8-44.8-44.8zM64 832h160v64h-182.4c-22.4 0-41.6-19.2-41.6-44.8v-777.6c0-22.4 19.2-41.6 41.6-41.6h374.4v64h-352v736z" />
<glyph unicode="&#xe9ab;" glyph-name="clipboard-lines" d="M294.4 352h441.6v-64h-441.6v64zM291.2 512h441.6v-64h-441.6v64zM864 896h-192v-64h192v-832h-704v832h192v64h-192c-35.2 0-64-28.8-64-64v-832c0-35.2 28.8-64 64-64h704c35.2 0 64 28.8 64 64v832c0 35.2-28.8 64-64 64zM697.6 768h-89.6v192h-192v-192h-96c-54.4 0-96-41.6-96-96v-32h576v32c0 54.4-51.2 96-102.4 96zM512 800v0 0c-25.6 0-48 22.4-48 48s22.4 48 48 48c25.6 0 48-22.4 48-48s-22.4-48-48-48z" />
<glyph unicode="&#xe9ac;" glyph-name="clipboard-list" d="M342.4 361.6l-96 80 41.6 51.2 44.8-41.6 86.4 105.6 51.2-41.6zM544 480h224v-64h-224v64zM544 224h224v-64h-224v64zM384 224v-64h-64v64h64zM448 288h-192v-192h192v192zM864 896h-192v-64h192v-832h-704v832h192v64h-192c-35.2 0-64-28.8-64-64v-832c0-35.2 28.8-64 64-64h704c35.2 0 64 28.8 64 64v832c0 35.2-28.8 64-64 64zM224 640h576v64c0 35.2-28.8 64-64 64h-128v192h-192v-192h-128c-35.2 0-64-28.8-64-64v-64z" />
<glyph unicode="&#xe9ad;" glyph-name="clipboard-list-check" d="M736 448c-140.8 0-256-115.2-256-256s115.2-256 256-256c140.8 0 256 115.2 256 256s-115.2 256-256 256zM700.8 60.8l-118.4 128 48 44.8 73.6-80 144 144 44.8-44.8-192-192zM448 448h96c38.4 28.8 80 48 128 57.6v6.4h-224v-64zM160 736v-64h512v64c0 35.2-28.8 64-64 64h-96v160h-192v-160h-96c-35.2 0-64-28.8-64-64zM409.6 912c25.6 0 44.8-19.2 44.8-44.8s-19.2-44.8-44.8-44.8c-25.6 0-44.8 19.2-44.8 44.8s22.4 44.8 44.8 44.8zM736 512c0 0 0 0 0 0 22.4 0 44.8-3.2 64-6.4v364.8c0 32-25.6 57.6-57.6 57.6h-166.4v-64h160v-352zM198.4 560l-48-41.6 96-105.6 156.8 153.6-44.8 44.8-108.8-105.6zM160 160h192v192h-192v-192zM224 288h64v-64h-64v64zM428.8 96h-332.8v768h160v64h-166.4c-32 0-57.6-25.6-57.6-57.6v-777.6c0-32 25.6-57.6 57.6-57.6h368c-9.6 16-19.2 38.4-28.8 60.8z" />
<glyph unicode="&#xe9ae;" glyph-name="clipboard-list-errors" d="M361.6 617.6l-108.8-105.6-51.2 54.4-48-41.6 96-105.6 156.8 153.6zM544 448c35.2 25.6 76.8 48 124.8 57.6v6.4h-220.8v-64h96zM160 160h192v192h-192v-192zM224 288h64v-64h-64v64zM96 96v768h166.4v64h-172.8c-32 0-57.6-25.6-57.6-57.6v-777.6c0-32 25.6-57.6 57.6-57.6h368c-12.8 19.2-22.4 41.6-28.8 64h-332.8zM736 864v-352c22.4 0 44.8-3.2 64-6.4v364.8c0 32-25.6 57.6-57.6 57.6h-172.8v-64h166.4zM736 448c-140.8 0-256-115.2-256-256s115.2-256 256-256c140.8 0 256 115.2 256 256s-115.2 256-256 256zM876.8 96l-44.8-44.8-89.6 89.6-89.6-89.6-44.8 48 89.6 89.6-89.6 86.4 44.8 44.8 89.6-89.6 89.6 89.6 44.8-44.8-89.6-89.6 89.6-89.6zM160 710.4v-38.4h512v38.4c0 48-48 89.6-96 89.6h-70.4v160h-176v-160h-80c-51.2 0-89.6-41.6-89.6-89.6zM416 918.4c25.6 0 44.8-19.2 44.8-44.8s-19.2-44.8-44.8-44.8c-25.6 0-44.8 19.2-44.8 44.8s19.2 44.8 44.8 44.8z" />
<glyph unicode="&#xe9af;" glyph-name="clipboard-list-pending" d="M361.6 617.6l-108.8-108.8-51.2 57.6-48-44.8 96-102.4 156.8 153.6zM668.8 512h-220.8v-64h96c35.2 25.6 76.8 48 124.8 57.6v6.4zM160 160h192v192h-192v-192zM224 288h64v-64h-64v64zM96 96v768h160v64h-166.4c-32 0-57.6-25.6-57.6-60.8v-777.6c0-32 25.6-57.6 57.6-57.6h368c-12.8 19.2-22.4 41.6-28.8 64h-332.8zM800 867.2c0 32-25.6 57.6-57.6 57.6h-166.4v-64h160v-352c22.4 0 44.8-3.2 64-6.4v364.8zM736 448c-140.8 0-256-115.2-256-256s115.2-256 256-256c140.8 0 256 115.2 256 256s-115.2 256-256 256zM864 128h-105.6c-32 0-54.4 22.4-54.4 54.4v169.6h64v-160h96v-64zM576 800h-70.4v160h-176v-160h-80c-48 0-89.6-38.4-89.6-89.6v-38.4h512v38.4c0 51.2-44.8 89.6-96 89.6zM416 828.8c-25.6 0-44.8 19.2-44.8 44.8s19.2 44.8 44.8 44.8c25.6 0 44.8-19.2 44.8-44.8 0-22.4-19.2-44.8-44.8-44.8z" />
<glyph unicode="&#xe9b0;" glyph-name="clipboard-list-solid" d="M864 896h-192v-64h64c70.4 0 128-57.6 128-128v-128h-704v128c0 70.4 57.6 128 128 128h64v64h-192c-35.2 0-64-28.8-64-64v-832c0-35.2 28.8-64 64-64h704c35.2 0 64 28.8 64 64v832c0 35.2-28.8 64-64 64zM448 64h-192v192h192v-192zM342.4 339.2l-96 80 41.6 48 48-38.4 86.4 102.4 48-41.6-128-150.4zM768 128h-224v64h224v-64zM768 384h-224v64h224v-64zM320 192h64v-64h-64v64zM224 640h576v64c0 35.2-28.8 64-64 64h-128v192h-192v-192h-128c-35.2 0-64-28.8-64-64v-64z" />
<glyph unicode="&#xe9b1;" glyph-name="clipboard-list-warn" d="M985.6 0l-211.2 425.6c-6.4 12.8-22.4 22.4-38.4 22.4s-32-9.6-38.4-22.4l-214.4-425.6c-6.4-12.8-6.4-28.8 3.2-41.6 6.4-12.8 22.4-19.2 35.2-19.2h425.6c22.4 0 41.6 19.2 41.6 41.6 3.2 3.2 0 9.6-3.2 19.2zM768 304v-204.8h-64v204.8h64zM768 0h-64v64h64v-64zM361.6 614.4l-108.8-108.8-51.2 57.6-48-44.8 96-102.4 156.8 153.6zM448 288v-64h76.8l32 64zM668.8 486.4v22.4h-220.8v-64h188.8l3.2 6.4c6.4 16 16 25.6 28.8 35.2zM160 160h192v192h-192v-192zM224 288h64v-64h-64v64zM160 707.2v-38.4h512v38.4c0 51.2-48 89.6-96 89.6h-70.4v160h-176v-160h-80c-51.2 0-89.6-38.4-89.6-89.6zM416 915.2c25.6 0 44.8-19.2 44.8-44.8s-19.2-44.8-44.8-44.8c-25.6 0-44.8 19.2-44.8 44.8s19.2 44.8 44.8 44.8zM96 96v768h160v64h-166.4c-32-3.2-57.6-28.8-57.6-60.8v-777.6c0-32 25.6-57.6 57.6-57.6h339.2l32 64h-364.8zM800 867.2c0 32-25.6 57.6-57.6 57.6h-166.4v-64h160v-352c22.4 0 44.8-6.4 64-22.4v380.8z" />
<glyph unicode="&#xe9b2;" glyph-name="clipboard-search" d="M633.6 768h-89.6v192h-192v-192h-96c-54.4 0-96-41.6-96-96v-32h576v32c0 54.4-51.2 96-102.4 96zM448 800v0 0c-25.6 0-48 22.4-48 48s22.4 48 48 48c25.6 0 48-22.4 48-48s-22.4-48-48-48zM982.4 48l-147.2 144c60.8 83.2 54.4 201.6-22.4 278.4-41.6 41.6-96 64-150.4 64s-108.8-22.4-150.4-64c-83.2-83.2-83.2-220.8 0-304 41.6-41.6 96-64 150.4-64 44.8 0 89.6 12.8 128 41.6l147.2-144c6.4-6.4 12.8-9.6 22.4-9.6s16 3.2 22.4 9.6c12.8 16 12.8 35.2 0 48zM662.4 169.6c-41.6 0-76.8 16-105.6 44.8s-44.8 67.2-44.8 105.6c0 41.6 16 76.8 44.8 105.6s67.2 44.8 105.6 44.8c41.6 0 76.8-16 105.6-44.8 57.6-57.6 57.6-153.6 0-214.4-25.6-25.6-64-41.6-105.6-41.6zM800 64v-64h-704v832h192v64h-192c-35.2 0-64-28.8-64-64v-832c0-35.2 28.8-64 64-64h704c35.2 0 64 28.8 64 64l-3.2 6.4-60.8 57.6zM800 832v-281.6c22.4-12.8 41.6-28.8 60.8-44.8 0 0 3.2-3.2 3.2-3.2v329.6c0 35.2-28.8 64-64 64h-192v-64h192z" />
<glyph unicode="&#xe9b3;" glyph-name="clipboard-task-assign" d="M1024-64h-512v128c0 86.4 73.6 160 160 160h192c89.6 0 160-70.4 160-160v-128zM928 416c0 89.6-70.4 160-160 160s-160-70.4-160-160c0-89.6 70.4-160 160-160s160 70.4 160 160zM576 768h-128v192h-128v-192h-128c-35.2 0-64-28.8-64-64v-64h512v64c0 35.2-28.8 64-64 64zM380.8 825.6v0c-19.2 0-32 12.8-32 32s12.8 32 32 32v0c19.2 0 32-12.8 32-32s-12.8-32-32-32zM768 832c0 35.2-28.8 64-64 64h-192v-64h192v-201.6c19.2 6.4 41.6 9.6 64 9.6v192zM457.6 128h-393.6v704h192v64h-192c-35.2 0-64-28.8-64-64v-704c0-35.2 28.8-64 64-64h384c0 22.4 3.2 44.8 9.6 64zM348.8 272l-163.2 153.6 41.6 44.8 115.2-102.4 160 195.2 48-38.4z" />
<glyph unicode="&#xe9b4;" glyph-name="clipboard-task-down" d="M377.6 563.2l-128-131.2-3.2 368h-64l3.2-371.2-131.2 128-44.8-44.8 211.2-204.8 204.8 211.2zM963.2 896h-195.2v-64h192v-832h-672v284.8l-16-19.2c-12.8-12.8-28.8-19.2-44.8-19.2 0 0 0 0-3.2 0v-246.4c0-35.2 28.8-64 60.8-64h675.2c35.2 0 60.8 28.8 60.8 64v832c3.2 35.2-25.6 64-57.6 64zM243.2 864c16 0 32-6.4 44.8-19.2 6.4-3.2 9.6-6.4 12.8-12.8h147.2v64h-163.2c-22.4 0-41.6-12.8-51.2-32h9.6c0 0 0 0 0 0zM704 960h-192v-192h-112c-35.2 0-64-28.8-64-64v-64h560v64c0 35.2-28.8 64-64 64h-128v192zM608 832c-19.2 0-32 12.8-32 32s12.8 32 32 32v0c19.2 0 32-12.8 32-32s-12.8-32-32-32v0 0zM598.4 185.6l-176 169.6 44.8 44.8 131.2-128 246.4 227.2 41.6-44.8z" />
<glyph unicode="&#xe9b5;" glyph-name="clipboard-x" d="M710.4 166.4l-156.8 156.8 150.4 150.4-44.8 44.8-150.4-147.2-144 144-44.8-44.8 144-147.2-150.4-150.4 44.8-44.8 150.4 150.4 156.8-156.8zM864 896h-192v-64h192v-832h-704v832h192v64h-192c-35.2 0-64-28.8-64-64v-832c0-35.2 28.8-64 64-64h704c35.2 0 64 28.8 64 64v832c0 35.2-28.8 64-64 64zM697.6 768h-89.6v192h-192v-192h-96c-54.4 0-96-41.6-96-96v-32h576v32c0 54.4-51.2 96-102.4 96zM512 800c0 0 0 0 0 0v0c-25.6 0-48 22.4-48 48s22.4 48 48 48c25.6 0 48-22.4 48-48s-22.4-48-48-48z" />
<glyph unicode="&#xe9b6;" glyph-name="clock-arrow-left" d="M1024 115.2v64l-368-6.4 128 131.2-48 44.8-201.6-208 208-204.8 44.8 44.8-131.2 128zM473.6 163.2c-12.8 0-25.6-3.2-41.6-3.2-201.6 0-368 166.4-368 368s166.4 368 368 368c201.6 0 368-166.4 368-368 0-44.8-9.6-86.4-22.4-128 3.2 0 3.2-3.2 6.4-3.2l44.8-44.8c22.4 54.4 38.4 112 38.4 176-3.2 240-195.2 432-435.2 432s-432-192-432-432c0-240 192-432 432-432 19.2 0 35.2 0 51.2 3.2-9.6 12.8-16 25.6-16 41.6 3.2 6.4 3.2 16 6.4 22.4zM368 774.4v-339.2h217.6v64h-153.6v275.2z" />
<glyph unicode="&#xe9b7;" glyph-name="clock-arrow-right" d="M393.6 307.2l128-134.4-371.2 6.4v-64l368-6.4-131.2-124.8 44.8-48 211.2 204.8-204.8 211.2zM592 960c-240 0-432-192-432-432 0-112 41.6-211.2 108.8-288h92.8c-86.4 67.2-140.8 172.8-140.8 288 3.2 201.6 169.6 368 371.2 368s368-166.4 368-368c0-166.4-112-307.2-262.4-352 6.4-9.6 9.6-22.4 9.6-35.2 0-9.6-3.2-19.2-6.4-28.8 185.6 44.8 323.2 214.4 323.2 416 0 240-192 432-432 432zM528 774.4v-339.2h217.6v64h-153.6v275.2z" />
<glyph unicode="&#xe9b8;" glyph-name="close" d="M960 742.4h-691.2c-19.2 0-38.4-6.4-51.2-22.4l-201.6-230.4c-22.4-25.6-22.4-60.8 0-86.4l201.6-227.2c12.8-12.8 28.8-22.4 48-22.4h694.4c35.2 0 64 28.8 64 64v460.8c0 35.2-28.8 64-64 64zM960 217.6c0 0 0 0 0 0h-694.4l-201.6 227.2c0 0 0 0 0 3.2l201.6 230.4h694.4c0 0 0 0 0 0v-460.8zM713.6 601.6l-112-108.8-108.8 108.8-44.8-44.8 108.8-108.8-108.8-108.8 44.8-44.8 108.8 108.8 112-108.8 44.8 44.8-108.8 108.8 108.8 108.8z" />
<glyph unicode="&#xe9b9;" glyph-name="close-x-square" d="M281.6 172.8l230.4 230.4 230.4-230.4 44.8 44.8-230.4 230.4 230.4 230.4-44.8 44.8-230.4-230.4-230.4 230.4-44.8-44.8 230.4-230.4-230.4-230.4zM960 960h-896c-35.2 0-64-28.8-64-64v-896c0-35.2 28.8-64 64-64h896c35.2 0 64 28.8 64 64v896c0 35.2-28.8 64-64 64zM960 0h-896v896h896v-896z" />
<glyph unicode="&#xe9ba;" glyph-name="close-x-square-solid" d="M960 960h-896c-35.2 0-64-28.8-64-64v-896c0-35.2 28.8-64 64-64h896c35.2 0 64 28.8 64 64v896c0 35.2-28.8 64-64 64zM800 230.4l-70.4-70.4-217.6 220.8-217.6-220.8-70.4 70.4 217.6 217.6-217.6 217.6 70.4 70.4 217.6-217.6 217.6 217.6 70.4-70.4-220.8-217.6 220.8-217.6z" />
<glyph unicode="&#xe9bb;" glyph-name="cloud-alt" d="M608 672c60.8 0 118.4-25.6 153.6-67.2 22.4-25.6 35.2-54.4 38.4-89.6l6.4-48 48-6.4c70.4-12.8 105.6-70.4 105.6-121.6 0-32-12.8-57.6-35.2-80-19.2-16-51.2-35.2-108.8-35.2h-652.8c-70.4 0-99.2 44.8-99.2 86.4 0 25.6 9.6 48 28.8 64 12.8 12.8 32 22.4 54.4 25.6l41.6 9.6 6.4 41.6c3.2 16 9.6 28.8 19.2 41.6 19.2 25.6 51.2 41.6 86.4 41.6 12.8 0 28.8-3.2 41.6-6.4l54.4-19.2 25.6 51.2c41.6 83.2 121.6 112 185.6 112zM608 736c-92.8 0-192-44.8-243.2-144-19.2 6.4-41.6 9.6-64 9.6-54.4 0-105.6-25.6-137.6-67.2-16-19.2-25.6-44.8-32-67.2-38.4-9.6-67.2-25.6-83.2-41.6-28.8-32-48-73.6-48-115.2 0-73.6 54.4-150.4 163.2-150.4h652.8c80 0 128 28.8 153.6 51.2 35.2 32 54.4 76.8 54.4 124.8 0 83.2-57.6 166.4-160 182.4-6.4 57.6-32 99.2-54.4 124.8-48 60.8-121.6 92.8-201.6 92.8v0z" />
<glyph unicode="&#xe9bc;" glyph-name="cloud-lock" d="M876.8 540.8c19.2 172.8-121.6 262.4-224 275.2-9.6 0-19.2 3.2-28.8 3.2-99.2 0-192-54.4-233.6-134.4-19.2 9.6-38.4 16-60.8 16-22.4-6.4-41.6-9.6-60.8-16-51.2-22.4-86.4-64-96-115.2-51.2-6.4-92.8-25.6-121.6-57.6-32-32-51.2-76.8-51.2-128 0-92.8 67.2-188.8 176-188.8h144v64h-144c-76.8 0-112 73.6-112 124.8 0 32 12.8 60.8 32 83.2 19.2 19.2 48 32 83.2 38.4l48 6.4 6.4 48c3.2 28.8 25.6 54.4 54.4 67.2 12.8 3.2 22.4 6.4 35.2 6.4s22.4-3.2 32-6.4l57.6-28.8 28.8 57.6c28.8 57.6 102.4 99.2 176 99.2 6.4 0 16 0 22.4 0 73.6-9.6 182.4-70.4 169.6-204.8l-6.4-60.8 60.8-9.6c64-9.6 92.8-64 92.8-112 0-28.8-9.6-54.4-28.8-73.6-25.6-28.8-64-32-92.8-32h-3.2v-64h6.4c57.6 0 105.6 19.2 137.6 51.2 28.8 32 44.8 73.6 44.8 118.4 3.2 73.6-48 156.8-144 172.8zM739.2 444.8c0 80-70.4 144-156.8 144s-156.8-64-156.8-144v-60.8h-41.6v-320h384v320h-28.8v60.8zM492.8 444.8c0 44.8 41.6 80 92.8 80s92.8-35.2 92.8-80v-60.8h-185.6v60.8zM704 128h-256v192h256v-192zM544 288h60.8v-128h-60.8v128z" />
</font>
</defs>
</svg>
