<svg id="charge-back" xmlns="http://www.w3.org/2000/svg" width="5.558" height="10.793" viewBox="0 0 5.558 10.793">
  <path id="Caminho_189" data-name="Caminho 189" d="M15.4,17.866H16.6V16.822a2.531,2.531,0,0,0,1.323-.647,2.239,2.239,0,0,0,.686-1.692,2.424,2.424,0,0,0-.156-.9,2.11,2.11,0,0,0-.478-.72,2.9,2.9,0,0,0-.757-.532,9.867,9.867,0,0,0-1.166-.464,5.317,5.317,0,0,1-1.031-.45,1.135,1.135,0,0,1-.41-.383,1.177,1.177,0,0,1-.111-.587,1.057,1.057,0,0,1,.361-.842,1.7,1.7,0,0,1,2.12.056,1.561,1.561,0,0,1,.386,1.121v.459h1.2v-.459A2.8,2.8,0,0,0,17.93,8.86a2.371,2.371,0,0,0-1.384-.75V7.075H15.341V8.106a2.527,2.527,0,0,0-1.326.629,2.238,2.238,0,0,0-.711,1.718,2.381,2.381,0,0,0,.245,1.11,2.275,2.275,0,0,0,.738.811,5.8,5.8,0,0,0,1.36.626,6.556,6.556,0,0,1,1.19.515,1.3,1.3,0,0,1,.457.416,1.111,1.111,0,0,1,.122.562,1.039,1.039,0,0,1-.384.826,1.533,1.533,0,0,1-1.064.359,1.83,1.83,0,0,1-1.28-.409,1.418,1.418,0,0,1-.431-1.118v-.459h-1.2v.459a2.62,2.62,0,0,0,.75,1.963,2.794,2.794,0,0,0,1.593.727v1.026Z" transform="translate(-13.056 -7.075)" fill="#0076ce"/>
</svg>
