<svg width="1436" height="851" viewBox="0 0 1436 851" fill="none" xmlns="http://www.w3.org/2000/svg">
<path d="M-4 0H1436V743H-4V0Z" fill="url(#paint0_linear_2_2)" fill-opacity="0.1"/>
<path d="M-352.591 241.395C-406.452 239.668 -438.316 276.613 -462.572 324.733C-506.833 412.537 -521.967 517.494 -507.418 606.852C-492.868 696.21 -440.047 758.336 -387.364 795.563C-307.508 851.991 -286.59 853.6 -208.5 848.018C-151.503 843.944 -120.808 836.565 -54.8058 802.844C11.1961 769.123 115.439 706.113 89.4221 615.546C68.8276 543.855 -73.879 523.313 -73.879 523.313C-73.879 523.313 -140.389 515.713 -180.359 484.749C-221.729 452.701 -247.937 369.037 -247.937 369.037C-247.937 369.037 -288.164 243.46 -352.591 241.395Z" fill="#EFE3A2"/>
<defs>
<linearGradient id="paint0_linear_2_2" x1="716" y1="0" x2="716" y2="743" gradientUnits="userSpaceOnUse">
<stop stop-color="#F6F2DD"/>
<stop offset="1" stop-color="#1090CB" stop-opacity="0"/>
</linearGradient>
</defs>
</svg>
