<svg width="117" height="43" viewBox="0 0 117 43" fill="none" xmlns="http://www.w3.org/2000/svg">
<path d="M68.9158 9.42583C79.892 3.43655 92.5886 16.8598 85.1604 27.1189C81.5617 32.4333 76.4082 33.7314 70.2676 31.9402V42.0232H62.6633V8.38134C64.5464 8.36603 66.3549 8.41485 68.2217 8.37081C69.0116 8.27795 68.8163 8.88588 68.9158 9.42583ZM74.7175 24.9352C80.6761 24.8375 80.8465 16.1628 74.8199 15.8153C68.9417 15.8766 68.5693 24.6815 74.7175 24.9352Z" fill="#E4531E"/>
<path d="M105.201 15.9651C105.205 16.372 105.077 16.4859 104.678 16.4821C102.794 16.4639 100.909 16.4878 99.025 16.4639C98.5339 16.4581 98.3663 16.6084 98.3711 17.1063C98.3931 19.2421 98.3692 21.379 98.3864 23.5158C98.3941 24.5134 98.7273 25.3712 99.7334 25.7542C101.216 26.1132 102.818 25.8709 104.338 25.9313C104.643 25.9293 104.859 25.9705 104.857 26.3592C104.794 28.766 104.953 31.2025 104.787 33.5931C99.5784 33.5146 93.2511 34.447 91.345 27.734C90.0774 19.4796 91.0482 10.6766 90.807 2.29102H98.3433C98.4333 4.55136 98.3548 6.82606 98.3807 9.09023C98.3807 9.57019 98.6286 9.81049 99.1246 9.81113C101.142 9.81209 103.126 9.81113 105.147 9.81113C105.261 11.8637 105.148 13.9106 105.201 15.9651Z" fill="#E4531E"/>
<path d="M115.542 11.8614C115.907 11.8585 116.056 11.9313 116.055 12.3429C116.019 19.416 116.09 26.4851 116.021 33.5572C113.923 33.6376 111.841 33.5524 109.743 33.5965C109.342 33.6013 109.245 33.4605 109.245 33.0871C109.253 26.1788 109.253 19.2704 109.245 12.3611C109.244 11.9763 109.358 11.8556 109.748 11.8595C111.679 11.8777 113.611 11.8757 115.542 11.8614Z" fill="#E4531E"/>
<path d="M116.442 4.24849C116.617 9.32444 108.579 9.05829 108.797 4.15179C108.923 -0.727905 116.542 -0.770029 116.442 4.24849Z" fill="#E4531E"/>
<path d="M57.1278 8.2788C57.5662 8.2721 57.7003 8.40421 57.6993 8.84364C57.6878 16.6605 57.6888 24.4765 57.6983 32.2934C57.6983 32.7117 57.5997 32.8793 57.1402 32.8726C55.1527 32.8218 53.1911 32.9109 51.2017 32.8305C51.1806 32.4743 51.1605 32.1325 51.1385 31.7668C39.2633 38.1812 26.6835 23.1888 35.1648 12.7937C38.7358 7.94276 45.7676 6.59671 51.0418 9.45445C51.1059 8.16583 51.2725 8.21944 52.406 8.29029C53.9799 8.2855 55.5538 8.30273 57.1278 8.2788ZM50.0136 20.5685C50.0748 14.4328 40.5395 14.1848 40.5854 20.5273C40.5241 26.8335 49.9705 26.71 50.0136 20.5685Z" fill="#E4531E"/>
<path d="M34.9484 6.31813C34.9207 6.3344 34.8939 6.35164 34.8661 6.36887C34.8891 6.34685 34.9101 6.32675 34.9331 6.30664C34.9379 6.31047 34.9436 6.3143 34.9484 6.31813Z" fill="#E4531E"/>
<path d="M33.3506 5.0851C31.9701 6.36701 30.6508 7.72264 29.4598 9.17497C28.5226 10.32 27.6906 11.5234 26.9563 12.8072C26.874 12.9508 26.7936 13.0973 26.7189 13.2457C25.7979 12.3429 24.3207 11.2084 22.2576 10.6493C21.8306 10.5335 20.8761 10.3114 19.7349 10.3114C14.457 10.3114 10.1622 14.6061 10.1622 19.8841C10.1622 21.6964 10.6677 23.3919 11.5466 24.8384L4.35962 32.0254C3.77275 32.4562 3.363 33.2824 3.363 34.0397C3.363 35.3254 4.4094 36.3718 5.69514 36.3718C6.43232 36.3718 7.13407 36.0167 7.57254 35.4212C7.57924 35.4116 7.58307 35.403 7.5869 35.3924L14.861 28.1184C16.2903 28.9666 17.9571 29.4558 19.7359 29.4558C19.8431 29.4558 21.0475 29.4491 22.226 29.1274C23.9157 28.666 25.257 27.6349 26.1244 26.8058C27.4149 28.9637 29.053 30.9321 30.782 32.7367C31.5115 33.4978 32.2688 34.2369 33.0519 34.9492C31.0041 36.8543 29.0233 37.8625 27.7701 38.39C22.0058 40.8169 16.1132 39.6527 14.4627 38.8677C14.4627 38.8677 12.1057 37.7495 10.1775 37.2306C10.1775 37.2306 10.1727 37.2296 10.166 37.2268C10.1593 37.2229 10.1517 37.222 10.144 37.221C10.1373 37.2191 10.1297 37.2191 10.122 37.2191C10.1153 37.2191 10.1076 37.2201 10.1009 37.221C10.0933 37.222 10.0866 37.2248 10.0789 37.2277C10.0732 37.2296 10.0674 37.2335 10.0607 37.2383C10.055 37.2421 10.0492 37.2459 10.0435 37.2526C10.0397 37.2564 10.0368 37.2574 10.0339 37.2593C8.95689 38.5881 7.41649 39.3186 5.69706 39.3186C2.56168 39.3186 0.0112609 36.7682 0.0112609 33.6328C0.0112609 31.8435 0.784813 30.2648 2.18927 29.1868C2.19406 29.183 2.19597 29.1791 2.1998 29.1753C2.20459 29.1696 2.21033 29.1638 2.21416 29.1581C2.21895 29.1523 2.22182 29.1456 2.22469 29.138C2.22756 29.1303 2.23044 29.1236 2.23139 29.1169C2.23235 29.1102 2.23235 29.1026 2.23235 29.0949C2.23235 29.0882 2.23235 29.0805 2.23139 29.0729C2.23044 29.0662 2.22661 29.0585 2.22469 29.0509C2.22278 29.0461 2.22278 29.0413 2.2199 29.0365C0.148164 25.4205 -0.488484 21.0348 0.373145 16.3523C0.55313 15.3777 2.34819 6.70784 9.98415 2.4667C14.0463 0.211149 18.3104 0.00818717 19.5224 0.000528243C21.0063 -0.0119175 22.5065 0.19966 22.5218 0.202533C24.1455 0.433258 25.6093 0.81429 26.9975 1.37052C27.4245 1.54093 27.8055 1.71326 28.1339 1.87314C28.5283 2.07418 28.9256 2.2848 29.3258 2.50787C30.7935 3.32259 32.1328 4.19284 33.3525 5.0851H33.3506Z" fill="#E4531E"/>
<path d="M23.7807 15.5903C25.7902 17.6228 26.2699 21.4695 23.7807 23.9586C21.2916 26.4478 17.441 25.9719 15.4114 23.9596C13.7791 22.3397 13.2707 19.7874 14.1161 17.4562C14.1276 17.4227 14.1554 17.3968 14.1889 17.3853C14.2348 17.37 14.2827 17.3959 14.2894 17.3997C14.3679 17.438 16.2099 19.5289 17.7685 17.9483C19.531 16.1618 17.2792 14.5104 17.2467 14.4443C17.2448 14.4386 17.218 14.3888 17.2323 14.3419C17.2438 14.3084 17.2697 14.2806 17.3041 14.2691C19.6296 13.4448 22.1714 13.9647 23.7798 15.5903H23.7807Z" fill="#E4531E"/>
</svg>
